<svg xmlns="http://www.w3.org/2000/svg" preserveAspectRatio="none" viewBox="0 0 309.895 13.93"><path d="M282.732 13.875c-3.989-.148-8.068-.095-12.019-.254-.619-.027-1.2-.014-1.771 0-.4.009-.791.018-1.177.014-1.57-.015-3.722.068-3.985-.423h.037l-2.42-.025a.373.373 0 0 1-.453 0h-.085.038c.15.113.932.219.162.34a4.446 4.446 0 0 1-.789 0c-.77-.122 0-.228.169-.34l.158-.018-3.958-.209c-1.04-.041-2.1-.074-3.042-.18l-4.812-.013c-.49.055-1 .087-1.52.1a3.14 3.14 0 0 1 .343.09 9.377 9.377 0 0 1-2.828-.1l-.945-.023c-8.271-.2-16.567-.145-24.848-.106-1.246.005-2.387-.05-3.514-.105-1.085-.053-2.157-.106-3.3-.1-7.7.021-15.355-.168-23.065-.177q-12.406-.018-24.821-.246c-5.351-.095-10.78-.053-16.167-.092-1.595-.009-3.173-.074-4.759-.115l-.077-.027c-10.407-.1-20.816-.212-31.229-.3a829.976 829.976 0 0 0-14.887.018c-2.283.023-4.533-.023-6.779-.069-2.1-.044-4.2-.087-6.319-.073a26.028 26.028 0 0 1-5.3-.021l-4.411-.03c-2.3.216-4.716.511-5.539-.287a22.5 22.5 0 0 1 4.419-.263h1.13c-7.446-.066-14.9-.029-22.347.014q.283.032.563.074c.152.31-1.246.2-1.994.263a27.212 27.212 0 0 1-2.916.018c-.007.055-.13.112-.382.17-2.138.224-4.522.175-6.8.207-6.5.088-13.089.047-19.23.567a16.906 16.906 0 0 1-1.7.054 26.608 26.608 0 0 0-6.777.585c-.475.1-1.7.331-1.927.142-.872-.7-2.941-.222-4.282-.175-3.5.127-3.479.154-4.692-.535a35.824 35.824 0 0 1 4.546-.366q.489-.045.983-.087a26.716 26.716 0 0 1-2.27-.179c-.63-.1-.977-.23-.307-.343 2.588-.44 5.7-.766 7.864-1.3a11.658 11.658 0 0 1 1.228-.059c2.479-.512 5.956-.4 9.07-.524l.417-.006a1.485 1.485 0 0 1 .532-.178q2.934-.06 5.872-.108.467-.042.923-.092a69.2 69.2 0 0 1 8.186-.035c13.793-.157 27.617-.169 41.44-.165 10.214 0 20.4.107 30.587.211q6.826 0 13.62.151l.225-.022 8.647-.077c-.07-.051-.088-.1-.045-.144.12.036.2.082.211.142h.423L134 9.028c1.75-.059 3.395.027 5.039.112 1.442.075 2.884.149 4.395.128l-.136.119a22.781 22.781 0 0 1 4.671-.084c1.374.056 2.723.122 4.131.133l.182.026c.505.007 1-.033 1.5-.073a9.249 9.249 0 0 1 2.616.04l.031.009h3.235c.079.217-.5.308-1.507.319a.666.666 0 0 0 .006.1l.21.031a20.168 20.168 0 0 1 2.968.18h-14.1c-.881 0-1.959-.018-1.832-.246.181-.325-1.689-.226-2.16-.4-.628.516-1.112.558-3.9.439a24.736 24.736 0 0 0-3.349.013c-.382.035-.839.041-1.271.048a23.243 23.243 0 0 1-4.14-.455 6.807 6.807 0 0 0-2.04.124 7.733 7.733 0 0 1-2.524.091 12.57 12.57 0 0 0-2.621.006c-3.038.151-6.195.118-9.7 0 1.008-.366 3.022-.167 4.01-.346l-11.756-.017c.065.051.13.1.195.154 1.081-.041 2.247-.04 4 0a28.885 28.885 0 0 1-4.079.084 10.986 10.986 0 0 1-2.574-.079 2.583 2.583 0 0 0-1.772.053c-.078.041-.756.039-1.112.075a4.365 4.365 0 0 1-1.53-.133 3.5 3.5 0 0 0-1.957-.024 8.592 8.592 0 0 1-2.417.161c-.373-.009-.743-.018-1.1-.007-1.531.047-2.51-.057-2.659-.329a82.663 82.663 0 0 1-4.283.036 32.249 32.249 0 0 1-9-.06q-.621.018-1.242.03c.07.071.062.132-.217.133-3.961.039-7.959.148-11.876-.062a.714.714 0 0 1-.251-.058h-1.168c-.278 0-.551 0-.817-.01a15.268 15.268 0 0 1-5.513-.135h2.69a2.743 2.743 0 0 0 .78.012h.519l-.075-.001c-5.916-.044-11.826-.034-17.7.092.49.005.988 0 1.487 0a69.769 69.769 0 0 1 1.941 0c.453.01.913.006 1.4 0a32.266 32.266 0 0 1 4.056.163c-6.244-.083-11.555.092-16.9.13-6.753.05-13.107.44-19.63.692-1.255.05-2.188.2-1.882.464a6.653 6.653 0 0 0 2.544.19q8.152-.126 16.31-.259c-1.149-.011-2.3-.016-3.4-.094a3.565 3.565 0 0 1-1.049-.207q-.1-.155.4-.283a41.578 41.578 0 0 1 5.808-.231q32.508-.138 64.976.2 15.868.136 31.737.278a21.99 21.99 0 0 1-1.7-.167 54.86 54.86 0 0 1 7.492.066c-.987.061-1.876.106-2.7.131q5.859.057 11.715.121c-.454-.026-.98-.063-1.666-.111l.032-.007a1.065 1.065 0 0 1-.151-.02c.055-.056.192-.049.349.018h6.742c-1.381.074-2.291.122-3.006.146q12.313.139 24.612.326c2.208.034 4.427.033 6.646.033h1.311l-.024-.006c-.786-.207-.026-.205.65-.2h.563c.39-.014.831.015 1.7.039-.381.068-.756.131-1.114.177 2.668.008 5.33.04 7.968.157q1.2.018 2.424 0 12.427.088 24.853.191c-.1-.014-.191-.029-.29-.04.231-.021.462-.059.68-.059a5.741 5.741 0 0 1 .629.071c-.1.009-.195.022-.294.033l6.551.05a12.382 12.382 0 0 1-.884-.121 47.259 47.259 0 0 1 5.192.036 15.116 15.116 0 0 0-1.635.069l-.45.033q5.663.042 11.331.078c-.478-.015-.955-.033-1.432-.051-1.736-.065-3.489-.13-5.383-.068a.139.139 0 0 1 .039-.08q-.99-.006-1.98-.017c-8.77-.2-17.591-.251-26.4-.3h-1.531c-1.537.005-3.081.011-4.512-.093a15.731 15.731 0 0 1-2.383-.235l-2.588-.009.017.012h-2.027l-.024-.005c-1.385.024-2.6-.126-3.938-.151h-.3l-.062.014c-5.333-.033-10.662.035-16.015-.122-2.455-.074-1.616-.3-1.593-.512h-4.641c-1.188 0-1.818-.113-1.943-.331 5.268-.068 10.459.106 15.7.163a8.928 8.928 0 0 1 2.807.328.441.441 0 0 1 .192.079c.892-.052 1.83.015 2.747.019l.379.008c-.24-.089-.48-.18-.717-.27h3.533c-.051.225-.639.3-1.41.324.333.021.647.051.93.092a.15.15 0 0 1 .059-.011 9.07 9.07 0 0 1 2.368-.122c-.231-.093-.26-.194.294-.315h2.631c.881.117.7.284.686.445a12.159 12.159 0 0 1 2.085-.13c-.047-.046.04-.092.459-.137h1.737l-.406.153c.2.006.384.016.556.029a47.724 47.724 0 0 1 3.33-.054c0-.057 0-.115-.007-.171 4 .012 8.008.009 12.02.05 5.429.056 10.86.175 16.312.115a7.691 7.691 0 0 0 2.29-.19q-7.951-.115-15.909-.235a.585.585 0 0 1 .35-.192c-2.5.033-5 .054-7.493.029.577.047 1.084.1 1.455.144-2.674.032-5.337.048-7.922-.115.084-.089.157-.187.538-.237a27.232 27.232 0 0 0-1.774.018c-2.473.048-4.931.052-7.382.034.314.033.615.074.9.126-2.375.032-4.742.077-7.047-.083a.373.373 0 0 1 .124-.121c-2.285-.038-4.567-.079-6.853-.107a1.677 1.677 0 0 1 .475.172 7.712 7.712 0 0 1-1.842-.05 3.9 3.9 0 0 1 .57-.131q-1.008-.011-2.016-.017a27.058 27.058 0 0 0-5.149-.065 30.456 30.456 0 0 1-3.594-.021 32.629 32.629 0 0 0-5.7-.071h-.222a2.586 2.586 0 0 1 .66.146 9.044 9.044 0 0 1-1.77-.024 3.3 3.3 0 0 1 .6-.118c-4.743.031-9.464-.024-14.182-.08q-3.509-.041-7.02-.071.09.035.178.075a12.558 12.558 0 0 1-2.682-.044l.146-.044q-1.724-.006-3.45 0a1.219 1.219 0 0 0-.575.172c-.526-.158-1.9-.123-2.683-.224q.259-.044.515-.078a15.707 15.707 0 0 0-2 .044 24.422 24.422 0 0 1-2.65-.026 24.93 24.93 0 0 0-6.063.062q-3.781.146-7.555.009a35.161 35.161 0 0 0-5.1-.211c-.581.015-1.168.018-1.757.009a10.7 10.7 0 0 1-1.73.059 1.223 1.223 0 0 1 .149-.1c-.852 0-1.7.023-2.54.061l.184.045c-1 .035-1.985.033-2.96 0q-1.236 0-2.475-.046a55.227 55.227 0 0 0-5.572-.032q-.361.01-.723.014a21.2 21.2 0 0 1-3.423-.036l.157-.031q-.788-.011-1.576 0l.045.011a13.736 13.736 0 0 1-2.285.06c-.977.028-1.942.018-2.889-.03-.9-.063-1.807-.1-2.709-.118q.27.034.539.081a36.723 36.723 0 0 1-4.385-.013q.251-.038.5-.068-1.029.016-2.057.043l.16.025a30.888 30.888 0 0 1-3.393.05q-.847.014-1.7.018c-.956.036-1.923.039-2.89.018l-.3-.008a6.132 6.132 0 0 1-1.2-.015h-.031l-.944.009q-.481.01-.961.031c-2.326.038-4.573.2-6.979.13a24.351 24.351 0 0 0-3.83.036A42.517 42.517 0 0 1 45 8.594a24.016 24.016 0 0 0-4.9-.337h-.01c.156.055.243.129.241.228q-10.194.165-20.372.326c-.27.057-.549.113-.8.171a61.978 61.978 0 0 1-9.626.228 6.494 6.494 0 0 0-1.782.136 20.591 20.591 0 0 1-4.741-.139c.287-.4 2.214-.349 3.537-.455a18.309 18.309 0 0 0 3.386-.385H8.702l-.042-.01a11.221 11.221 0 0 1-4.116.257c-.693-.033-1.386-.067-2.036-.055-1.1-.14-1.305-.322.033-.4 1.57-.085 3.293-.076 4.956-.109.1.005.19.011.279.018l3.036-.095c.119-.03.245-.059.373-.087a3.037 3.037 0 0 1 .78-.041 3.615 3.615 0 0 0 .483.056 13.664 13.664 0 0 1 2.034-.124 1.954 1.954 0 0 1 .355-.1q3.074-.109 6.146-.213l-.075-.009-1.579-.017a7.228 7.228 0 0 0-.926-.122c-4.034.132-8.151.173-12.123.375a16.721 16.721 0 0 1-2.451-.078.287.287 0 0 0-.074.174A8.848 8.848 0 0 1 .1 7.6c-.516-.248 1.079-.766 2.545-.828 2.535-.106 4.546-.372 6.946-.691a27.387 27.387 0 0 0-3.656-.147c-.465 0-.917.007-1.356 0a7.817 7.817 0 0 1-1.851-.166l-.212.021c-.084-.242.008-.493-.312-.725-.3-.21-.23-.343.618-.5.941-.172 1.093-.382.993-.657s.653-.641 3.07-.422c-.379.1-.712.195-.742.28.191-.045.436-.093.742-.144 1.962-.057 3.985-.028 5.936-.108a39.224 39.224 0 0 0-1.285-.081c-1.368-.068-2.808-.154-2.9-.467l-2.6.032a10.265 10.265 0 0 1-3.105.039c-.229-.248 1.562-.326 1.316-.568-1.748-.056-2.061-.3-.577-.387 3.352-.193 6.6-.535 10.315-.427a37.45 37.45 0 0 0 3.471-.168c.008-.286.924-.532 2.155-.568A77.158 77.158 0 0 1 29.747 1Q30.6.984 31.454.963c.141-.145-.129-.352.88-.387A3.5 3.5 0 0 1 34.269.9L36.2.889h.006-.006c.77-.467 1.491-.5 4.105-.2h.008l1.73-.035a363.1 363.1 0 0 1 7.845-.281 18.767 18.767 0 0 1 2.679-.1h1.181c2.307-.059 4.648-.074 7-.081a4.766 4.766 0 0 1 .978 0q2 0 4-.011c.485 0 .977-.007 1.421.009A40.08 40.08 0 0 0 70.34.053a14.849 14.849 0 0 1 3.962.241c1.561-.016 3.125-.009 4.7.046q14.45 0 28.917.008c4.106 0 8.135.13 12.2.2 5.386.092 10.824.076 16.245.088 15.074.032 30.123.207 45.177.349a28.071 28.071 0 0 1 2.93.145c.528 0 1.049.012 1.571.028.643.02 1.285.04 1.94.023 8.5.041 17.009.012 25.465.23.083.018.154.037.215.055q8.44.036 16.885.023c5.962 0 11.927 0 17.89.028 14.461.071 28.823.269 42.938.914a58.553 58.553 0 0 1 7.456.744c-4.249-.13-7.8-.088-11.342-.032-3.342-.224-6.9-.21-10.349-.313-19.658-.589-39.481-.716-59.348-.754q-3.786-.007-7.573-.031l-.71.005c-11.51.074-22.954-.207-34.449-.228a33.855 33.855 0 0 0-4.1-.142c-6.212.048-12.421.089-18.62-.018-1.249-.059-2.359-.221-3.758-.174a119.22 119.22 0 0 1-5.98-.009c-1.216-.039-2.4.009-3.59.047q-14.9.009-29.759-.086c-14.963-.074-29.984-.229-44.963.068q3.45.019 6.9.017l.9-.006c4.581-.024 9.161-.05 13.725.012q2.906.012 5.807.044c16.117.18 32.27.228 48.4.393q10.527.108 21.086.161 3.83.016 7.654.045 4.664.028 9.329.06c23.3.162 46.659.115 69.923.355 10.875.109 21.911.056 32.621.473a51.9 51.9 0 0 1 6.081.434c1.21.083 2.432.166 4.614.317-1.1.069-2.135.1-3.127.1 1.319.073 2.626.157 3.939.235a2.71 2.71 0 0 1 .56-.053 21.1 21.1 0 0 1 4.6.074 2.892 2.892 0 0 1 .688.057c2.25.148 1.987.822 4.787.715.337.329-2.12.193-1.281.488.382.133 1.354.293.211.4a6.36 6.36 0 0 1-2.809-.193.23.23 0 0 0-.076-.088l-1.088-.058c-.189.019-.383.04-.565.054a17.217 17.217 0 0 1-3.826-.035v-.007q-4.212-.1-8.435-.145c1.759.03 3.505.093 5.23.214a1.1 1.1 0 0 1 .6.268c2.24.014 4.473.048 6.655.153.774.039 1.951.041 1.877.257s-1.23.284-2.242.287c-.724 0-1.448-.01-2.171-.023.786.031 1.559.075 2.311.14a22.789 22.789 0 0 0 2.611.118c2.5-.021 4.855.089 7.081.29.125.047.187.089.2.128l.657.02h.005a6.327 6.327 0 0 1 2.159.186c.159.112-.481.175-1.138.175a2.411 2.411 0 0 1-.606.058l-.272-.01c-1.728.34-4.2.483-6.109.774a10.2 10.2 0 0 1-1.091-.062c-.58-.013-1.162-.021-1.742-.033a.775.775 0 0 1-.113-.1c-.441.387 2.209.191 2.686.408a6.209 6.209 0 0 1-1.369.13c-.674.092-.225.166.041.266.417.148-.609.115-.887.189-.349.088-.831.159-.617.283a6.534 6.534 0 0 0 1.9.317 16.784 16.784 0 0 1 3.362.233l-5.671.229.6.335.092.019c1.148.035 2.294.068 3.439.1a1.711 1.711 0 0 1 1.067-.181c.576.02.69.14.769.243.26.021.565.03.79.065.39.059.275.18-.107.163-5.058-.207-10.286-.043-15.333-.264q-.231.046-.453.1c-.5 0-1.009-.006-1.508-.006q-.3-.034-.606-.059l-.365.033c0 .074.012.148.024.222.537.014 1.068.032 1.6.05l.052.008c3.354-.035 6.7-.037 10.021.1a75.3 75.3 0 0 1-10.115.15v-.008c-2-.023-3.963.036-5.929.1-2.311.069-4.624.139-6.991.076-.92.043-1.846.047-2.768 0l-.114.019c-.518.005-1.026.005-1.544.009l-.7-.038.038.005a22.25 22.25 0 0 0 3.023.1c.4 0 .8-.009 1.191-.006a5.538 5.538 0 0 1 2.465.29l.331.035q4.643-.038 9.285-.081h-.017a2.538 2.538 0 0 1 1.885-.067h.174c1.4-.005 2.806-.008 4.214-.014 1.783-.261 2.256 0 2.763.243l.078.005c1.664.071 3.347.115 5.057.086a2.568 2.568 0 0 1 1.753.05c.183.172-.4.3-1.529.207a28.529 28.529 0 0 0-3.468.068l-.05.006c-.193.206-2.495.465.56.6.754.035 1.13.266-.18.355-3.91.267-7.832.56-11.989.56q-1.498 0-3.028-.055ZM45.814 10.886q.237.01.461.025l-.055-.029h-.459Zm247.661-.533h.01-.024Zm-33.8-.451h1.375a2.355 2.355 0 0 0-.408-.1q-.609.012-1.222.032c-.4.006-.8-.005-1.187-.023a32.356 32.356 0 0 0-4.667-.078c.151.046.221.1.193.174l1.193-.006c1.57.012 3.148.007 4.721-.001ZM93.807 9.159h2.638q-.6-.011-1.21-.011-.713-.002-1.428.011Zm150.943-.815h.721l-.636-.025ZM14.761 8.057h-.016Zm174.835-.6a.323.323 0 0 1 .084.185 12.236 12.236 0 0 0 1.57-.239h-2.038q.195.025.388.055ZM226 7.5c.011-.076-.163-.158-.348-.239a.663.663 0 0 0-.322.232Zm-26.409-.6.1-.014a.592.592 0 0 0-.327-.155.759.759 0 0 1 .227.169Zm43.787-.719a10.1 10.1 0 0 1-1.515-.522.411.411 0 0 1-.142-.095q-.219-.025-.437-.053h-.519a8.1 8.1 0 0 0 2.613.67ZM32.07 5.867l.289-.016a5.99 5.99 0 0 0-.393-.007Zm234.978-.253c1.984.024 3.972 0 5.936.07a2.614 2.614 0 0 1 .4-.155A8.8 8.8 0 0 1 274.8 5.5a2.089 2.089 0 0 1 .395-.119c2.417-.014 4.843-.05 7.253-.045-7.53-.057-15.075-.019-22.608-.045-.042.074-.083.148-.128.224h-1.359c1.856.085 3.747.085 5.647.085h.644c.802 0 1.604 0 2.404.014Zm-36.595-.108a9.957 9.957 0 0 0-1.169-.1 1.615 1.615 0 0 0 1.169.1ZM59.468 5.277h.023l.016-.012h-.845l.006.006q.4.001.8.006ZM36.68 5.2c-.318-.1-1.03-.158-1.832-.308l-.489-.028a1.353 1.353 0 0 0-.33-.012c.692.05 1.17.127.793.3q-.128.02-.258.036Zm180.993-.132a2.928 2.928 0 0 1 .366-.085h-.049l-1.31-.009-.045.009c-3.153.111-6.263.024-9.359-.08v.007c-.575-.006-1.154-.012-1.73-.015h-.026c-1.026.03-2.051.032-3.077-.011h-.026l-1.554-.021a12.38 12.38 0 0 1-1.839-.027l-2.36-.033a6.693 6.693 0 0 1-1.493 0q-3.045.01-6.082-.013c-.539.019-1.08.021-1.628-.013-3.674-.034-7.343-.092-11.01-.154h-.011c-5.531-.053-11.07-.095-16.6-.166q-27.1-.337-54.248-.517c-1.258-.01-2.512-.034-3.765-.059a19.667 19.667 0 0 1-2.413-.052.132.132 0 0 0 .021-.024l-.884-.005a.183.183 0 0 1 0 .018q-.606.013-1.212.022c-1.969.061-3.93.056-5.884.018q-1.659-.008-3.319-.021-.149.022-.288.051h.108c16.931.119 33.866.166 50.772.335 14.3.145 28.6.369 42.9.546 11.814.148 23.687.361 35.571.266q.234.019.474.032ZM13.252 4.177c.357-.01.714-.019 1.07-.025q.1-.011.191-.025l-.832.031Zm31.786-.25q3.341-.031 6.686-.053c-.8-.008-1.6-.019-2.4-.025-.068-.118-.144-.236-.215-.352q-2.016-.021-4.04-.018c.371.156.367.307-.03.448Zm40.016-.056-.37-.048h-.059q-3.387 0-6.772-.008l-.2.021q3.704.013 7.402.035Zm-27.194-.03q8.771-.036 17.544-.012l-.2-.019q-3.085 0-6.168-.006-5.592.001-11.176.037Zm80.524-.5.786.009c-.008-.039.07-.079.262-.121 1.867-.417-.085-.159-.781-.157-1.348 0-.987.138-.727.264Zm-28.858-.305q7.451.078 14.9.152c-1.3-.134-2.7-.189-4.145-.212a.393.393 0 0 0-.163.111l-1.807-.009-.325-.118c-1.33 0-2.666 0-3.966-.022-.711.01-1.33 0-1.919-.031-.4 0-.805.014-1.215.024-.518.012-1.042.025-1.565.025a.245.245 0 0 1 .02.039h-.29q.239.02.475.046Zm-4.873 0c1.031-.007 2.062-.015 3.09-.011q.135-.013.27-.022-2.31.013-4.618 0-2.071.011-4.144.009c1.791.059 3.597.045 5.403.031ZM15.212 2q.312-.063.649-.114l-1.171.04q.26.039.522.074Zm6.444-.571h.016-.019Zm31.257 10.51a9.837 9.837 0 0 1 2.469-.194h.593a10.594 10.594 0 0 0 1.331-.079l-2.416-.01c0-.1.008-.2.017-.3a31.688 31.688 0 0 1 3.937-.319h.882c.678-.005 1.357-.01 2 .02q2-.047 4.013.032a11.256 11.256 0 0 1 1.229.124c-.356.248-2.06.1-2.553.314q-.583-.006-1.16 0a1.159 1.159 0 0 1-.156.093 2 2 0 0 1-.321.065l-1.681.005h-.232c.773.069 1.733.063 2.685.063h.743c-.056-.042-.107-.091-.164-.126l1.449-.021a8.54 8.54 0 0 1 2.7.142l7.109-.024c.5.036 1.229.053.957.2a3.987 3.987 0 0 1-1.051.122q-3.048-.045-6.1-.1c-2.319.1-5.4.146-8.424.146-2.908-.019-5.769-.064-7.856-.153Zm-8.448.048.68-.068c.228.023.457.044.678.068a6.661 6.661 0 0 1-.678.065 6.738 6.738 0 0 1-.68-.066ZM187.1 10.779a29.594 29.594 0 0 1 6.989.1c-1.161.033-2.187.062-3.207.062a41.088 41.088 0 0 1-3.782-.162Zm-15.895-.25a23.206 23.206 0 0 1 5.582.2c-.927.032-1.771.068-2.574.068a14.388 14.388 0 0 1-3.005-.268Zm-8.284.066c-.033-.03-.079-.057-.113-.086.545-.005 1.1-.029 1.64-.023h.578a18.414 18.414 0 0 1 2.424.11Zm-51.051-.653a7.663 7.663 0 0 1 1.144-.039 5.765 5.765 0 0 1 .68.074c-.373.03-.747.056-1.025.08-.444-.029-1.046-.011-.799-.115Zm60.81-.794a8.8 8.8 0 0 1 3.522.027c-.526.046-1.047.066-1.564.066a21.181 21.181 0 0 1-1.958-.092Z"/></svg>