<svg xmlns="http://www.w3.org/2000/svg" xmlns:xlink="http://www.w3.org/1999/xlink" width="50" height="50" viewBox="0 0 50 50"><defs><style>.a{fill:url(#a);}.b{fill:#fff;}.c{filter:url(#d);}.d{filter:url(#b);}</style><linearGradient id="a" x1="0.483" y1="0.073" x2="0.5" y2="1" gradientUnits="objectBoundingBox"><stop offset="0" stop-color="#01d9cf"/><stop offset="1" stop-color="#00bdf3"/><stop offset="1" stop-color="#00bcf5"/></linearGradient><filter id="b" x="5.501" y="5.804" width="39.366" height="39.371" filterUnits="userSpaceOnUse"><feOffset dx="1" dy="1" input="SourceAlpha"/><feGaussianBlur result="c"/><feFlood flood-opacity="0.078"/><feComposite operator="in" in2="c"/><feComposite in="SourceGraphic"/></filter><filter id="d" x="11.063" y="11.387" width="28.231" height="28.208" filterUnits="userSpaceOnUse"><feOffset dx="1" dy="1" input="SourceAlpha"/><feGaussianBlur result="e"/><feFlood flood-opacity="0.078"/><feComposite operator="in" in2="e"/><feComposite in="SourceGraphic"/></filter></defs><g transform="translate(389 -265.637)"><rect class="a" width="50" height="50" rx="5" transform="translate(-389 265.637)"/><g transform="translate(-383.499 271.442)"><g class="d" transform="matrix(1, 0, 0, 1, -5.5, -5.8)"><path class="b" d="M19.2,0A19.185,19.185,0,0,0,5.928,33.038l.492.438c.625-.6,9.141-8.981,9.666-9.491l1.024-1.027c.088-.085.175-.169.26-.257a1.332,1.332,0,0,0,.423-1.027,1.347,1.347,0,0,0-.444-.976l-.169-.13a1.48,1.48,0,0,0-1.837.2L6.71,29.277A16.055,16.055,0,1,1,14.9,34.663a2.559,2.559,0,0,0-.716-.118A1.51,1.51,0,0,0,12.7,36.107a1.654,1.654,0,0,0,1.317,1.55A19.185,19.185,0,1,0,19.2,0Z" transform="translate(5.49 5.8)"/></g><g class="c" transform="matrix(1, 0, 0, 1, -5.5, -5.8)"><path class="b" d="M45.183,28.533a1.544,1.544,0,0,0-1.462-1.239,1.489,1.489,0,0,0-1.486,1.474,1.758,1.758,0,0,0,.1.532A10.645,10.645,0,0,1,32.061,42.737h-.088a10.654,10.654,0,0,1,.073-21.308h.079a10.706,10.706,0,0,1,6.344,2.142l-5.546,5.5a1.432,1.432,0,0,0-.254,1.67l.19.284a1.335,1.335,0,0,0,.967.432,1.4,1.4,0,0,0,.979-.4l6.235-6.208c.1-.1.275-.272.45-.447l.069-.063c.272-.278.942-1,.942-1l-.559-.6a13.485,13.485,0,0,0-9.8-4.253h-.115a13.6,13.6,0,0,0-.073,27.208h.1A13.593,13.593,0,0,0,45.183,28.533Z" transform="translate(-7.36 -7.09)"/></g></g></g></svg>