<svg xmlns="http://www.w3.org/2000/svg" width="32" height="32" viewBox="2 2 28 28"><defs><linearGradient id="a" x1=".305" y1=".307" x2="1" y2="1" gradientUnits="objectBoundingBox"><stop offset="0" stop-opacity="0"/><stop offset="1"/></linearGradient><clipPath id="b"><path d="m206.014 178.37-3.107-3.553.433-4.7-4.6-1.044-2.404-4.073-4.329 1.859-4.33-1.859-2.407 4.062-4.6 1.031.433 4.711L178 178.37l3.107 3.553-.433 4.711 4.6 1.044 2.407 4.062 4.329-1.872 4.329 1.859 2.407-4.062 4.6-1.044-.433-4.7Z" transform="translate(-178 -165)" fill="#ffc603"/></clipPath></defs><path fill="rgba(174,219,225,0)" d="M0 0h32v32H0z"/><path d="m30.014 16.37-3.107-3.553.433-4.7-4.6-1.044L20.336 3l-4.329 1.859L11.677 3 9.27 7.062l-4.6 1.031.433 4.711L2 16.37l3.107 3.553-.433 4.711 4.6 1.044 2.407 4.062 4.329-1.872 4.329 1.859 2.407-4.062 4.6-1.044-.433-4.7Z" fill="#e9b800"/><path d="m206.014 178.37-3.107-3.553.433-4.7-4.6-1.044-2.404-4.073-4.329 1.859-4.33-1.859-2.407 4.062-4.6 1.031.433 4.711L178 178.37l3.107 3.553-.433 4.711 4.6 1.044 2.407 4.062 4.329-1.872 4.329 1.859 2.407-4.062 4.6-1.044-.433-4.7Z" transform="translate(-176 -162)" opacity=".14" fill="url(#a)"/><g transform="translate(2 3)" clip-path="url(#b)"><path d="m-8.157-9.057 41.119-41.119L74.081-9.057 32.962 32.062Z" fill="#fed232" opacity=".56"/></g><path d="M13.679 22.38 8.84 17.529l1.885-1.885 2.954 2.967 7.449-7.474 1.885 1.885Z" fill="#fff"/></svg>