<svg xmlns="http://www.w3.org/2000/svg" xmlns:xlink="http://www.w3.org/1999/xlink" width="24" height="21" viewBox="0 0 24 21"><defs><path id="a" d="M771.56 1988.42a5.52 5.52 0 0 0-4.02-1.42c-.47 0-.95.08-1.43.24-.5.17-.96.4-1.38.67a10.91 10.91 0 0 0-2.02 1.61l-.21.22-.21-.21a10.96 10.96 0 0 0-2.02-1.62c-.42-.28-.89-.5-1.38-.67a4.5 4.5 0 0 0-1.43-.24c-1.7 0-3.06.48-4.02 1.42a5.3 5.3 0 0 0-1.44 3.95c0 .5.09 1.03.27 1.57a7.08 7.08 0 0 0 1.41 2.56 12.33 12.33 0 0 0 .95 1.06l.03.02 7.52 7.29c.09.09.2.13.32.13.13 0 .23-.04.32-.13l7.51-7.27c1.77-1.78 2.67-3.54 2.67-5.23a5.3 5.3 0 0 0-1.44-3.95z"/></defs><g transform="translate(-750 -1985)"><use fill="#ff284a" xlink:href="#a"/></g></svg>