<svg xmlns="http://www.w3.org/2000/svg" xmlns:xlink="http://www.w3.org/1999/xlink" width="16" height="16" viewBox="0 0 16 16"><defs><path id="k68sa" d="M1272.22 2056.52l9.05-9.03 2.26-2.28a.71.71 0 0 1 1 0l3.24 3.28c.27.28.27.72 0 1l-11.31 11.3c-.14.13-.3.2-.5.2l-3.27.02a.68.68 0 0 1-.49-.2.71.71 0 0 1-.2-.51l.02-3.3c0-.18.08-.35.2-.48zm10.54-8.54l2.28 2.28 1.28-1.28-2.28-2.28zm-9.36 11.61l2.3-.02 8.34-8.32-2.28-2.27-8.34 8.33z"/></defs><g><g transform="translate(-1272 -2045)"><use fill="#01D9CF" xlink:href="#k68sa"/></g></g></svg>