<?xml version="1.0" encoding="utf-8"?>
<!-- Generator: Adobe Illustrator 19.2.1, SVG Export Plug-In . SVG Version: 6.00 Build 0)  -->
<svg version="1.1" id="Vrstva_1" xmlns="http://www.w3.org/2000/svg" xmlns:xlink="http://www.w3.org/1999/xlink" x="0px" y="0px"
	 viewBox="0 0 236 140" style="enable-background:new 0 0 236 140;" xml:space="preserve">
<style type="text/css">
	.st0{fill:#E6E6E6;}
	.st1{opacity:0.9;fill:#414143;}
	.st2{opacity:0.8;fill:#414143;}
	.st3{opacity:0.6;fill:#414143;}
	.st4{opacity:0.5;fill:#414143;}
	.st5{opacity:0.4;fill:#414143;}
	.st6{opacity:0.25;fill:#414143;}
	.st7{opacity:0.2;fill:#414143;}
	.st8{opacity:0.1;fill:#414143;}
</style>
<path id="Obdélník_20_kopie_2" class="st0" d="M3,0h230c1.7,0,3,1.3,3,3v134c0,1.7-1.3,3-3,3H3c-1.7,0-3-1.3-3-3V3
	C0,1.3,1.3,0,3,0z"/>
<g>
	<path class="st1" d="M123,46.1c-5.9-3.4-11.9,2.7-8.5,8.5c0.4,0.7,0.9,1.2,1.6,1.6c5.9,3.4,11.9-2.7,8.5-8.5
		C124.2,47,123.6,46.5,123,46.1z"/>
	<ellipse transform="matrix(0.766 -0.6428 0.6428 0.766 -11.1399 81.3758)" class="st2" cx="106.2" cy="56" rx="5.4" ry="5.4"/>
	<ellipse transform="matrix(0.1736 -0.9848 0.9848 0.1736 14.7257 154.032)" class="st3" cx="99.1" cy="68.2" rx="4.8" ry="4.8"/>
	<ellipse transform="matrix(0.866 -0.5 0.5 0.866 -27.4736 61.8104)" class="st4" cx="101.6" cy="82.2" rx="4.2" ry="4.2"/>
	<ellipse transform="matrix(0.342 -0.9397 0.9397 0.342 -11.7774 165.7083)" class="st5" cx="112.4" cy="91.3" rx="3.6" ry="3.6"/>
	<ellipse transform="matrix(0.9397 -0.342 0.342 0.9397 -23.5802 48.7984)" class="st6" cx="126.6" cy="91.3" rx="3" ry="3"/>
	<ellipse transform="matrix(0.5 -0.866 0.866 0.5 -2.4525 160.0955)" class="st7" cx="137.4" cy="82.2" rx="2.4" ry="2.4"/>
	<ellipse transform="matrix(0.9848 -0.1736 0.1736 0.9848 -9.725 25.3262)" class="st7" cx="139.9" cy="68.2" rx="1.8" ry="1.8"/>
	<ellipse transform="matrix(0.6428 -0.766 0.766 0.6428 4.5476 121.7347)" class="st8" cx="132.8" cy="56" rx="1.2" ry="1.2"/>
</g>
</svg>
