<svg xmlns="http://www.w3.org/2000/svg" width="681" height="347.433"><path d="M158.158 16.915c1.581.038 3.155.255 3.547 2.127.427 2.035-.927 3.115-2.6 3.581a30.336 30.336 0 0 1-4.135.409c-1.455.2-3.182 1.083-3.826-1.042-.6-1.963 1.325-2.5 2.465-3.353a7.2 7.2 0 0 1 4.552-1.722Z" fill="#66EDE7"/><g fill="#66EDE7"><path d="M4.607 55.13C2.138 54.378.018 53.03 0 50.255a6.28 6.28 0 0 1 4.324-5.736q4.34-1.953 8.655-3.927c1.357-.619 3.991-.138 2.675-3.152-.116-.272.845-1.185 1.451-1.574a87.155 87.155 0 0 1 33.19-13.427 23.044 23.044 0 0 1 13.3 2.3 6.392 6.392 0 0 0 4.7.347c5.791-1.562 11.581 0 17.306.685 9.365 1.142 18.717 2.513 27.971 4.34a54.169 54.169 0 0 0 19.535 0c1.759-.291 3.838.161 4.55-2.4a2.6 2.6 0 0 1 2.325-.967c3.813 1.161 6.081-1.522 8.753-3.229 2.789-1.784 3.805-1.323 4 1.843.03.505-.073 1.017-.052 1.523.121 2.872 1.11 4.324 4.171 2.63 1.551-.857 3.2-1.522 4.776-2.349a3.775 3.775 0 0 1 5.635 2.029c1.293 2.478-.667 3.38-2.481 4.15a46.569 46.569 0 0 1-7.666 2.663c1.2-.426 2.618-.876 3.426.711.779 1.526-.169 2.766-1.4 3.531a11.878 11.878 0 0 1-5.854 2.558c-2.586.067-3.36-1.156-2.5-3.882-4.8 2.558-9.58 5.076-14.325 7.659a11.966 11.966 0 0 0-2.419 1.809c-4.516 4.224-3.956 7.348 2.081 8.993a6.973 6.973 0 0 1 6.012 6.233c.228 1.646.827 3.761 2.49 3.882 1.613.118 2.928-1.505 3.931-3.073 3.068-4.8 6.343-9.453 9.427-14.24a30.568 30.568 0 0 1 4.434-5.187c3.237-3.183 4.285-3.2 7.467-.011a10.485 10.485 0 0 0 5.665 2.824c5.959 1.171 10.9 3.608 11.782 10.5.228 1.868 1.736 2.716 2.892 3.849 3.177 3.111 2.9 6.229-.955 8.749-4.354 2.842-9.425 3.585-14.391 4.568-3.927.77-7.89 1.371-11.851 1.962a8.624 8.624 0 0 1 8.429 4.456 3.93 3.93 0 0 1-1.268 5.1 26.43 26.43 0 0 1-11.73 5.1 6.356 6.356 0 0 0-3.454 1.3c-8.781 6.814-18.13 12.971-25.563 21.372a34.408 34.408 0 0 0-8.191 16.479c-.272 1.408-.343 3.255-2.143 3.708-1.654.413-2.351-1.2-3.33-2.117-5.231-4.913-11.853-5.533-18.413-5.253-6.062.265-11.814 2.208-14.781 8.269a28.2 28.2 0 0 0-3.118 13.18c.089 3.427 3.906 5.384 8.507 4.4 3.426-.735 6.828-1.61 10.24-2.423l1.686.93c.646.894.089 1.676-.251 2.46-1.827 4.231-1.576 5.362 2.462 7.381 4.42 2.214 7.721 4.723 5.644 10.478-.8 2.216.934 4.309 1.238 6.51l-1.505 1.905c-1.453.324-2.376-.606-3.308-1.448a102.844 102.844 0 0 0-17.491-12.583 8.471 8.471 0 0 0-5.254-1.949c-10.736 1.45-16.129-5.438-20.826-13.315a157.012 157.012 0 0 1-8.328-17.441 15.113 15.113 0 0 0-4.167-5.62 31.076 31.076 0 0 1 3.239 8.17c.327 1.458.386 3.182-1.29 4.02-1.773.885-2.97-.381-3.815-1.617a20.654 20.654 0 0 1-4.532-13 3.747 3.747 0 0 0-.763-3.148c-7.412-8.28-7.081-17.612-3.378-27.253a57.785 57.785 0 0 1 8.523-16.051c6.286-7.715 3.693-15.364.061-22.9a14.465 14.465 0 0 0-5.528-6.563 11.973 11.973 0 0 0-8.223-1.475 74.356 74.356 0 0 0-23.961 8.155c-.766.393-1.574.912-2.49.321ZM109.552 179.819c6.624.127 12.394-2.775 18.338-5.133 3.723-1.475 5.162-.913 6.7 2.034 3.943-4.712 8.749-5.483 15.049-2.324 6.364 3.2 11.878 7.716 17.817 11.575a38.476 38.476 0 0 0 9.475 4.664c1.32.414 2.874.671 3.072 2.413 1.064 9.334 8.248 12.234 15.608 15.076a129.59 129.59 0 0 1 15.533 6.168c7.346 4 9.064 8.831 4.8 15.892a27.006 27.006 0 0 0-3.2 10.618 45.815 45.815 0 0 1-10.051 21.017c-6.167 7.967-13.381 15.207-17.47 24.65a41.356 41.356 0 0 0-1.8 4.589 6.52 6.52 0 0 1-4.013 4.583c-6 2.632-8.895 8.056-10.964 13.875-3.611 10.116-4.363 20.214.74 30.153a11.29 11.29 0 0 0 2.741 3.6 2.331 2.331 0 0 1 .868 3.022c-.736 1.371-1.944 1.251-3.294.965a23.81 23.81 0 0 1-14.756-9.927 68.665 68.665 0 0 1-7.412-14.9c-5.226-12.9-8.758-26.1-7.485-40.264a69.9 69.9 0 0 0-1.923-22.932c-1.841-7.5-6.723-12.755-12.86-17.239a32.965 32.965 0 0 1-12.413-20.667c-2.387-11.143 1.681-21.418 4.42-31.865.254-.965.555-1.922.786-2.726-3.2-1.522-7.145-1.928-9.254-5.535ZM246.699.968c3.538.772 7.709-.87 12.022-.914a73.918 73.918 0 0 1 20.62 2.117 30.539 30.539 0 0 0 5.274.3c1.188.128 2.268.457 2.579 1.813a2.174 2.174 0 0 1-1.642 2.63c-9.19 3.258-14.249 11.116-19.756 18.245a12.378 12.378 0 0 1-10.213 5.71c-7.675.319-13.578 5.085-19.558 9.332a52.1 52.1 0 0 1-12.394 7.248 10.2 10.2 0 0 1-12.365-5.444 4.084 4.084 0 0 1 .866-4.214 17.9 17.9 0 0 0 4.061-13.058 14.372 14.372 0 0 0-11.951-11.7c-1.453-.294-3.294.112-3.538-1.981-.228-2.042 1.768-2.425 2.992-2.862a110.287 110.287 0 0 1 23.793-5.576A105.626 105.626 0 0 1 246.7.964Z"/><path d="M168.29 28.369c-3.113-.029-5.8.307-8.187-1.371-2.871-2.029-2.97-3.884-.13-5.859 6.243-4.354 12.869-3.02 19.188-.606 5.667 2.167 11.131 4.994 14.318 10.737 1.708 3.077 1.16 5.322-1.942 6.9a6.638 6.638 0 0 0-2.611 2.093 11.986 11.986 0 0 1-17.908 1.6c-2.709-2.513-2.513-4.784.633-6.716 1.078-.658 2.3-1.076 3.426-1.671.866-.458 2.741.577 2.54-1.358a3.371 3.371 0 0 0-2.983-3.376 27.2 27.2 0 0 0-6.343-.378Z"/><path d="M177.185 14.315a2.6 2.6 0 0 1 1.8 3.089c-.456 1.883-2.177 1.953-3.712 1.857-3.52-.228-7.036-.532-10.544-.872a2.234 2.234 0 0 1-2.168-1.8 1.827 1.827 0 0 1 1.025-2.227c4.386-1.579 8.82-3.023 13.317-4.237a6.307 6.307 0 0 1-7.106-1.143 1.9 1.9 0 0 1-.1-2.147c1.756-2.686 4.707-2.883 7.414-3.062a3.8 3.8 0 0 1 4.212 3.808c8.66-7.339 19-6.853 29.28-6.683 1.889.035 3.794.356 4.228 2.43.48 2.3-1.469 2.919-3.219 3.454a245.473 245.473 0 0 1-34.435 7.537ZM121.446 31.43a8.066 8.066 0 0 1-9.19-5.428 3.827 3.827 0 0 0-4.315-2.364c-1.009.079-2.019.166-3.029.171-1.428 0-2.905-.123-3.349-1.81-.5-1.882.8-2.854 2.284-3.393a26.587 26.587 0 0 1 16.6-1.625 38.454 38.454 0 0 1 12.564 4.989c3.262 2.284 3.184 5.618-.37 7.343a23.922 23.922 0 0 1-11.195 2.117ZM189.792 83.258c-4.779-.107-8.783-3.217-8.635-6.7.11-2.541 4.066-5.939 6.935-5.953 2.3-.01 6.764 5.9 6.643 8.788-.112 2.653-1.756 3.934-4.943 3.865ZM129.021 151.253c.135 2.269-1.948 3.394-4.283 2.1a57.763 57.763 0 0 1-7.31-4.687 5.66 5.66 0 0 0-6.624-.861c-1.553.771-3.621 1.739-4.523-.588-.886-2.284 1.37-2.934 2.91-3.655a12.329 12.329 0 0 1 8.867-.277 28.477 28.477 0 0 1 8.887 4.917 4.381 4.381 0 0 1 2.076 3.049ZM147.91 16.992a3.156 3.156 0 0 1 3.159 3.411 5.634 5.634 0 0 1-5.861 4.772c-2.339-.335-4.509-1.361-4.749-4.037-.165-1.837 4.326-4.373 7.451-4.146ZM136.481 158.719c-3.349-.119-5.453-1.429-5.612-4.4-.176-3.246 2.4-3.294 4.753-3.309h.754c2.4.085 5.482-.118 5.3 3.2a5.108 5.108 0 0 1-5.195 4.509ZM134.684 18.502a22 22 0 0 1-7.867-.859c-1-.363-1.992-.642-1.992-1.892 0-1.031.816-1.551 1.688-1.807a28.343 28.343 0 0 1 13.822-.256 2.438 2.438 0 0 1 2.056 2.772c-.228 1.577-1.489 1.942-2.784 2.019-1.632.112-3.281.023-4.923.023Z"/><path d="M122.544 16.235c-1.885-.094-3.735.371-4.656-1.487a1.748 1.748 0 0 1 .786-2.317 10.779 10.779 0 0 1 8.756-1.224 1.711 1.711 0 0 1 1.252 2.09c-1.136 3.006-3.957 2.619-6.138 2.938ZM153.173 17.858c-1.969-.189-3.991-.434-3.9-3.022.08-2.323 1.777-3.229 3.847-3.2 2.184.028 4.059.966 4.077 3.427.019 2.59-2.155 2.636-4.024 2.795Z"/><path d="M156.375 6.989c2.22.171 3.785 1.05 3.869 3.356a2.481 2.481 0 0 1-2.894 2.686 3.8 3.8 0 0 1-4.043-3.64c-.089-1.877 1.569-2.286 3.068-2.402Z"/></g><g fill="#66EDE7"><path d="M329.747 109.199c-2.086-.373-4.479-1.241-4.815-3.749-.327-2.447 2.035-2.459 3.808-2.434 2.284.031 4.477.482 4.568 3.356.085 2.08-1.42 2.761-3.561 2.827ZM638.53 273.882c1.044 14.309-11.65 28.22-23.626 32.195-5.868 1.946-12.792-1.208-16.412-7.328-6.154-10.4-10.7-12.164-22.493-8.755-5.832 1.685-11.406 4.183-17.379 5.451a18.824 18.824 0 0 1-4.514.437c-5.112-.143-6.373-1.37-5.482-6.329 1.393-7.766 1.371-15.822 4.676-23.242s8.422-12.5 16.76-13.683a10.075 10.075 0 0 0 6.462-3.427 45.624 45.624 0 0 1 20.051-13.214 43.561 43.561 0 0 1 7.357-1.652 4.453 4.453 0 0 1 5.185 3.462c.822 2.514 1.537 5.067 2.348 7.588.514 1.6 1.3 3.521 2.958 3.58 1.354.048 2.414-1.729 3.111-3.056 1.416-2.694 2.65-5.482 3.947-8.223.612-1.3 1.265-2.567 2.985-2.472 1.51.083 2.122 1.247 2.636 2.431 4.223 9.736 9.071 19.252 11.019 29.813a52.285 52.285 0 0 1 .411 6.424ZM642.533 229.143c-.2 2.055-1.43 3.015-3.054 1.871-4.968-3.509-10.724-2.385-16.115-2.83-6.307-.524-10.051-2.385-12.335-8.205-.592-1.492-1.048-2.1-2.8-2.2-2.837-.171-8.372-6.853-8.2-9.5a2.2 2.2 0 0 1 2.956-2.1c9.838 2.583 20.33 3.149 29.01 9.381a31.721 31.721 0 0 1 10 12.214c.199.436.358.911.538 1.369ZM569.08 212.95c.064-4.955 5.046-11.193 10.147-12.907 1.327-.457 2.814-1.061 3.6.705.713 1.6-.365 2.741-1.624 3.405-1.551.81-2.57 1.033-1.142 3.294 1.6 2.537-2.015 11.651-4.726 12.923a3.655 3.655 0 0 1-4.989-2.169 9.021 9.021 0 0 1-1.266-5.251ZM645.34 326.356c-1.724-.032-3.127-.254-3.748-1.794-.672-1.665.482-2.688 1.6-3.49a74.979 74.979 0 0 1 18.123-9.492c1.528-.551 3.13-.61 3.883 1.188.685 1.647-.473 2.513-1.745 3.3-4.719 2.951-9.4 5.971-14.1 8.942a6.7 6.7 0 0 1-4.013 1.346ZM556.834 228.108c-4.77-1.186-9.822-2.285-14.756-3.742a3.348 3.348 0 0 1-2.451-4.167 2.866 2.866 0 0 1 3.607-2.02 57.1 57.1 0 0 1 14.788 4.515 3.046 3.046 0 0 1 2.1 3.613c-.41 1.504-1.733 1.641-3.288 1.801ZM583.806 189.884c-2.6-.08-6.7-3.011-6.624-4.739.071-1.647 5.45-5.788 7.538-5.554 3.079.346 4.176 2.484 4.112 5.34a4.732 4.732 0 0 1-5.026 4.952ZM681 302.423c0 1.537-.023 2.637-.808 3.044a27.241 27.241 0 0 0-6.723 5.407 1.855 1.855 0 0 1-2.727.024 1.961 1.961 0 0 1-.228-2.741 29.829 29.829 0 0 0 4.5-9.917 2.284 2.284 0 0 1 4.447-.209c.671 1.627 1.173 3.294 1.539 4.392ZM602.519 315.29c.025-3.308 2.118-5.8 4.841-5.522a4.323 4.323 0 0 1 4.216 4.474c.089 2.1-3.7 5.2-6.206 5.085-2.577-.108-2.831-2.024-2.851-4.037ZM642.537 221.313c-1.828-.135-3.958-.308-3.623-2.742.4-2.856 3.145-3.013 5.322-3.209a2.725 2.725 0 0 1 3.081 3.047c-.166 3.11-2.633 2.812-4.78 2.904ZM582.869 231.763c-1.263-.062-2.257-.521-2.366-1.928-.123-1.6 3.312-4.459 5.178-4.375a2.117 2.117 0 0 1 2.2 2.488c-.055 1.83-2.796 3.907-5.012 3.815ZM559.401 215.097c-7.872-.02-12.614-5.455-11.65-12.9a5.386 5.386 0 0 1 2.394-4.111c4.568-2.944 9.086-6 13.767-8.775 3.883-2.284 7.632-.948 7.7 3.427.108 6.746.717 13.979-5.087 19.416a8.82 8.82 0 0 1-7.124 2.943ZM531.704 198.025c5.071 4.341 7.221 10.437 9.7 16.314a2.593 2.593 0 0 1-.9 3.079 3.3 3.3 0 0 1-3.911.107 22.323 22.323 0 0 1-7.291-7.059c-3.936-5.843-6.958-12.293-11.842-17.509a2.6 2.6 0 0 1-.635-3.426 3.389 3.389 0 0 1 4.514-.685c2.718 1.692 5.914 2.949 7.426 6.134.374.5.751 1 1.126 1.507l-.183-.111.941.873-.174-.105ZM591.307 115.977a3.793 3.793 0 0 1-1.5-.123c-1.482-.5-3.6-.428-3.883-2.429-.308-2.3 1.889-2.256 3.351-2.806 5.08-1.9 6.423-4.3 5.66-10.366-.157-1.259-.715-2.558.763-3.322 1.409-.729 2.357.227 3.285 1.142 3.1 3.047 6.59 6.1 4.619 11.056-2.015 5.085-6.447 6.685-12.295 6.848Z"/><path d="M596.091 96.888c-3.383-.053-6.64-4.391-6.473-8.584.082-2.056.9-3.426 3.164-3.426 3.655.025 9.466 4.3 9.553 6.99.06 2.393-3.275 5.066-6.244 5.02ZM569.084 163.443a60.609 60.609 0 0 0 .913-6c.341-2.5 2.211-3.013 4.24-1.755a5.814 5.814 0 0 1 3.148 5.291 7.2 7.2 0 0 1-3.216 6.152c-2.435 1.567-5.04-.215-5.085-3.688ZM584.841 115.382a6.4 6.4 0 0 1 4.477 4.823c.365 2.045-1.25 3.237-3.267 3.328-2.878.129-4.066-1.617-4.132-4.271-.025-1.916.501-3.492 2.922-3.88ZM565.939 143.24c.27-2.166.6-4.636 3.5-4.859a2.993 2.993 0 0 1 3.278 3.345 4.846 4.846 0 0 1-4.226 5.027c-2.187.347-2.415-1.664-2.552-3.513ZM586.38 174.27c-.982 1.563-.046 4.84-3.346 4.493-2.152-.229-2.645-2.016-2.109-4.066.457-1.718-.806-4.535 2.6-4.285 2.124.158 2.969 1.688 2.855 3.858ZM546.74 150.494c2.145.049 3.129 1.055 3.136 2.806a3.9 3.9 0 0 1-3.462 4.221 2.631 2.631 0 0 1-3.073-2.951 4.305 4.305 0 0 1 3.4-4.075Z"/><path d="M577.186 66.526c-1.492-.686-1.233-1.746-.4-2.705a1.952 1.952 0 0 1 3.015-.062 48.807 48.807 0 0 1 11.611 15.711 1.97 1.97 0 0 1-3.326 2.109 55.2 55.2 0 0 1-6.812-10.507c-.943.3-1.254-.051-.986-.974a1.963 1.963 0 0 1 .139.192v-.151c.777-.139 1.069.181.888.944 3.815 4.228 3.4 8.865 1.016 13.477-2.2 4.27-4.591 8.452-7.122 12.529a7.039 7.039 0 0 0 .63 9.137 14.621 14.621 0 0 1 1.524 2.171c.75 1.3 1.053 2.718-.349 3.737-1.263.915-2.33.158-3.344-.753a64.252 64.252 0 0 0-10.165-7.268c-3.009-1.795-6.168-3.425-10.037-2.085 3.826 2.129 6.99 4.55 7.871 9.232.927 4.914 4.708 8.608 6.437 13.21 3.2 8.5.989 14.476-7.026 18.695a123.8 123.8 0 0 1-12.75 5.872 20.859 20.859 0 0 0-8.356 5.567 15.67 15.67 0 0 1 6.941 9.345 16.82 16.82 0 0 1 .275 11.878c-2.056 5.4-6.766 6.5-11.138 2.74-2.431-2.1-3.543-5.649-7.143-6.427-1.789 1.95-.578 3.986-.192 6.055 1.083 5.811 2.83 11.243 7.766 15.076a1.827 1.827 0 0 1 .587 2.664c-1.235 1.6-2.626 3.146-5.025 2.095l-1.231-.884.176.1-.941-.874.183.114-1.128-1.519c-3.883-6.049-3.865-13.268-5.912-19.874a41.213 41.213 0 0 0-2.864-8.225c-1.042-1.854-2.056-3.774-4.626-4.053a3.383 3.383 0 0 1-2.7-2.908 19.5 19.5 0 0 0-3.079-6.057 10.2 10.2 0 0 0-14.847-2.633 39.9 39.9 0 0 0-15.739 27.084c-.187 1.31-.331 2.561-1.7 3.141-1.48.628-2.35-.4-3.26-1.3-5.724-5.665-7.888-13.185-10.507-20.432a46.382 46.382 0 0 0-6.4-12.849 13.606 13.606 0 0 0-13.907-5.3 15.543 15.543 0 0 1-8.49-1.271 132.744 132.744 0 0 1-19.416-8.7 18.924 18.924 0 0 0-7.081-2.337 44.394 44.394 0 0 1 3.07 5.048c.685 1.545 1.56 1.7 3.154 1.809a20.609 20.609 0 0 1 16.394 8.877 6.415 6.415 0 0 1-1.141 9.5c-4.42 4.072-8.875 8.147-13.637 11.8-8.536 6.548-16.328 4.992-23.071-4.25-5.254-7.192-8.742-15.4-13.141-23.071-1.868-3.262-3.339-6.853-6.686-9.015l-.171.133c.107.052.26.075.317.159a95.146 95.146 0 0 1 6.852 14.811c3.655 8.518 7.31 17.086 13.861 23.83a17.023 17.023 0 0 0 16.823 5.368c3.883-.914 5.389.8 4.448 4.73-2 8.329-7.444 14.519-12.684 20.846-4.738 5.711-9.987 11.012-12.833 18.139a20.274 20.274 0 0 0 .943 17.2 4.455 4.455 0 0 1-1.009 5.955c-5.055 5.377-7.31 12.357-10.051 19.019-3.426 8.3-6.549 16.747-12.534 23.7a31.478 31.478 0 0 1-16.5 10.316c-7.638 1.873-14.222-2.936-17.5-11.78a144.04 144.04 0 0 1-6.28-26.12 19.26 19.26 0 0 0-.66-2.945 21.177 21.177 0 0 1-.612-14.256c2.2-6.766.713-13.918-1.121-20.764a102.594 102.594 0 0 0-11.3-24.443c-1.841-3.2-5.5-2.154-8.292-2.283-7.294-.351-14.619.04-21.929-.135-9.406-.229-16.15-5.092-21.184-12.731-5.606-8.5-4.463-17.725-2.392-26.787a59.08 59.08 0 0 1 28.13-38.876c6.183-3.712 13.233-4.568 20.138-6.168 9.19-2.129 13.963 4.027 19.718 8.694 1.761 1.428 3.171 3.214 5.092 4.537 5.763 3.967 8.6 4.167 14.391.077a4.5 4.5 0 0 1 5.178-.536c4.5 2.106 9.633 1.713 14.334 3.344 2.7.935 9.644-4.932 10.17-7.92a2.09 2.09 0 0 0-.761-2.373 2.194 2.194 0 0 0-2.138.346c-2.643 1.64-2.609 1.57-4.63-.479-.409-.414-1.343-.274-2.01-.475a12.666 12.666 0 0 1-8.13-5.79c-2.835-5.088-1.213-9.444 4.39-11.288a19.274 19.274 0 0 1 15.453 1.089c1.218.627 2.741 1.945 4.158.538 1.549-1.527.228-3.077-.5-4.468a33.48 33.48 0 0 0-3.314-5.524c-1.485-1.852-3.374-3.2-5.9-1.383-.48.342-1.307.73-1.732.546-4.134-1.8-5.578 1.37-7.483 3.855-3 3.9-5.688 8.223-10.784 9.761-1.567.475-1.371 1.765-1.494 2.715-.279 2.271-1.206 4.026-3.483 4.409-2.207.37-3.671-1.019-5.007-2.759-2.917-3.8-6.122-7.382-9.064-11.167-1.48-1.9-3.828-2.2-5.5-3.609a31.994 31.994 0 0 1 8.187 10.913 4.848 4.848 0 0 1-.587 4.705 2.971 2.971 0 0 1-2.677 1.809c-1.494-.033-1.656-1.188-2-2.307-1.572-5.072-4.3-9.151-9.674-10.849-8.045-2.535-18.1-1.046-21.568 9.05a14.935 14.935 0 0 1-8.278 8.468c-4.112 1.9-7.874.313-10.718-4.529a12.488 12.488 0 0 1 .471-14.311c2.663-3.884 6.094-4.849 11.921-3.457-3.776-6.533-2.044-11.434 5.087-14.39a5.686 5.686 0 0 1-6.656-3.884 15.049 15.049 0 0 1-.185-14.2c1.439-2.59 3.865-3.215 5.5-1.024a45.125 45.125 0 0 1 6.732 15.533c.1.379-.329.9-.176.521 2.832-2 7.17-3.328 10.051-6.754a14.843 14.843 0 0 0 3.129-4.246c.423-1.141.827-2.627 2.463-2.436 1.444.171 1.291 1.688 1.731 2.679.2.441.379.889.815 1.917-.018-1.654-.457-2.881.914-3.383a1.616 1.616 0 0 1 1.766.331 2.957 2.957 0 0 1 .251 3.884 33.951 33.951 0 0 0 26.673-13.15 8.392 8.392 0 0 0-6.967-.8c-3.138.56-3.655-.843-2.8-3.411a22.141 22.141 0 0 1 1.37-3.538 1.91 1.91 0 0 0-.488-2.4c-.871-.939-1.718.013-2.312.475a9.364 9.364 0 0 0-4.23 7.652 33.236 33.236 0 0 1-1.008 7.85c-1.174 4.638-4.936 6.1-9.075 3.645a48.871 48.871 0 0 0-12.856-6.3c-3.18-.808-2.131-3.779-.969-6.014a41.122 41.122 0 0 1 26-20.661c10.912-3.283 21.5-2.812 31.395 3.447 1.124.708 2.846 1.168 2.421 2.969-.384 1.63-2.108 1.615-3.385 2.036-.952.315-2 .344-2.935.685-1.067.4-1.188 1.281-.553 2.156.8 1.094 6.364 1.331 7.031.192 3.726-6.362 10.227-7.653 16.559-8.521 7.346-1.007 14.827-1.021 22.237-1.6 2.273-.179 4.683-.438 4.112-3.978a3.348 3.348 0 0 1 2.327-3.924c1.98-.558 3.075 1.066 3.92 2.4 2.223 3.507 4.24 7.143 6.343 10.737l.564-.355c-.11-.037-.251-.042-.327-.111-4.71-4.466-4.043-9.185 1.6-12.088 6.4-3.3 13.489-4.268 20.3-6.147a46.042 46.042 0 0 0 8.927-3.143c4.646-2.371 16.919.128 20.33 4.015a8.686 8.686 0 0 0 5.254 2.823 62.13 62.13 0 0 0 12.011 1.294c9.479-.191 19-.409 28.126 2.856 1.293.457 2.236-.229 3.271-.458 10.823-2.418 21.353 0 31.9 1.857a180.946 180.946 0 0 0 26.2 3.468c1.451.043 2.814.475 3.625-1.579.457-1.178 2.234-.754 3.5-.5a316.784 316.784 0 0 1 30.883 7.664 37.11 37.11 0 0 1 4.5 2.024c1.569.73 3.239 1.7 2.268 3.669a3.829 3.829 0 0 1-4.642 1.7c-2.17-.576-4.244-1.5-6.544-2.337 4.1 8.331 3.173 9.751-5.8 11.308-8.589 1.487-9.119-.416-3.655 8.5a24.5 24.5 0 0 1 3.458 7.939 3.669 3.669 0 0 1-5.007 4.458c-5.5-1.827-7.892-6.4-9.594-11.456-1.142-3.358-2.227-6.727-3.379-10.078-.815-2.374-2.741-2.769-3.9-.889-3.468 5.605-8.577 5.054-13.934 4.568a13.98 13.98 0 0 0-12.054 5.233c-2.821 3.159-2.156 5.441 1.873 6.657a18.222 18.222 0 0 0 4.112.5c2.022.139 4.324-.142 5.482 2.222.85-.32 1.156-.07.854.813a3.851 3.851 0 0 1 .468.229c.021.013-.062.179-.1.272l-.315-.457c-.662.017-.98-.303-.98-.941Z"/><path d="M414.301 242.876c-2.985 8.044-2.556 17.993-9.665 25.126a18.393 18.393 0 0 1-1.91 1.838c-1.788 1.33-3.9 2.514-5.939 1.143a5.807 5.807 0 0 1-1.981-6.109 97.427 97.427 0 0 0 2.155-12.984c.082-4.758 7.323-12.6 11.956-13.706 3.103-.744 5.291.923 5.384 4.692ZM269.29 33.63c2.716.018 5.348.16 6.91 2.9a2.825 2.825 0 0 1-.427 3.787 7 7 0 0 1-7.609 1.713c-1.167-.439-2.437-.608-3.621-1.01-1.77-.605-1.978-2.094-1.894-3.683a3.428 3.428 0 0 1 2.892-3.465 26.085 26.085 0 0 1 3.749-.242ZM290.787 64.792c-.114 2.851-6.645 6.961-9.256 5.807a2.739 2.739 0 0 1-1.736-1.871c-.685-3.469 2.444-4.979 4.041-7.174 1.241-1.707 3.376-1.244 5.167-.229a3.45 3.45 0 0 1 1.784 3.467ZM479.048 184.099c.105-2.055-.228-4.653 2.915-5.133 1.976-.3 5.528 3.791 5.231 6.168-.313 2.513-1.42 4.836-4.475 4.69-3.491-.149-3.671-2.849-3.671-5.725ZM315.194 100.301c.187-2.228 1.117-3.842 3.387-3.895a2.669 2.669 0 0 1 3.029 3.052 4.291 4.291 0 0 1-4.009 3.883c-2.001.135-2.256-1.578-2.407-3.04ZM593.893 116.56c-.265 2.109-1.4 3.167-3.287 3.045s-3.6-.914-3.5-3.108c.091-1.947 1.638-2.7 3.447-2.681a3.215 3.215 0 0 1 3.34 2.744ZM581.892 168.663c-.27 1.9-1.112 2.969-2.777 2.8a3.6 3.6 0 0 1-3.488-3.406c-.132-1.715 1.174-2.435 2.741-2.378a3.452 3.452 0 0 1 3.524 2.986Z"/></g></svg>