<svg data-name="Vrstva 1" xmlns="http://www.w3.org/2000/svg" viewBox="0 0 543.06 126.91"><path d="M268.75 99.74c-15.68 0-28.75-12.61-28.75-28.39s13.38-27.72 28.77-27.72c15.59 0 28.77 12.13 28.77 27.91-.01 15.2-12.62 28.2-28.79 28.2Zm0-47a18.91 18.91 0 1 0 18.77 18.77 18.81 18.81 0 0 0-18.77-18.74ZM230.26 45.07h-.48c-2.39 0-4.1 1.7-4.81 4l-10.4 30.65h-.19l-11.07-34.65h-6.54L185.7 79.72h-.19l-.23-.72-.63-1.85-1-2.78-1.13-3.37-1.32-3.87-1.38-4-1.35-4-1.23-3.61-1-3-.74-2.17a12.68 12.68 0 0 0-1.14-3 4.91 4.91 0 0 0-4.13-2.23H163l19.92 53.32h5.49l11.55-35.9h.19l11.55 35.9h5.58L237 45.07h-6.74ZM345.68 27.17h-.34a4.9 4.9 0 0 0-4.9 4.44v66.78h10V27.17h-4.77ZM330.82 43.63c-5.39.19-10.3 1.64-13.57 6.26h-.19v-4.82h-9.33v53.32h10V69.23c0-4.81 1.15-11 5.87-13.38a16.81 16.81 0 0 1 3.83-1.44 4.85 4.85 0 0 0 3.39-4.62v-6.17ZM411.56 27.17h-.14a4.87 4.87 0 0 0-4.86 4.83v19.62h-.19c-4.23-5.39-11.36-8-18.09-8-16.17 0-27.72 12.32-27.72 28.29s11.74 27.81 27.72 27.81c7.41 0 14.44-2.79 18.86-9h.19v2.39a6.76 6.76 0 0 0 .06 1.25 4.82 4.82 0 0 0 .29 1 4.87 4.87 0 0 0 2.74 2.67 5.24 5.24 0 0 0 1.68.33h4.47V27.17h-5Zm-22.81 63.42c-10.2 0-18.19-8.76-18.19-18.77 0-10.39 7.7-19.05 18.29-19.05 10.87 0 18.48 8.37 18.48 19.05a18.63 18.63 0 0 1-18.58 18.77ZM481.23 71.06a27.29 27.29 0 0 0-27.14-27.43c-15.59 0-27.33 12.61-27.33 28 0 14.92 11.93 28.1 27.14 28.1a27.17 27.17 0 0 0 25.6-18.09h-7.3a5 5 0 0 0-4 2.09 17.37 17.37 0 0 1-13.9 6.86c-8.76 0-15.49-6.26-17.52-14.53h44.17a43.64 43.64 0 0 0 .28-5Zm-44.46-2.69c.58-8.76 8.57-15.59 17.23-15.59s16.65 6.83 17.23 15.59h-34.46ZM543.06 71.06a27.29 27.29 0 0 0-27.14-27.43c-15.59 0-27.33 12.61-27.33 28 0 14.92 11.93 28.1 27.14 28.1a27.17 27.17 0 0 0 25.6-18.09H534a5 5 0 0 0-4 2.09 17.37 17.37 0 0 1-13.9 6.86c-8.76 0-15.49-6.26-17.52-14.53h44.17a43.64 43.64 0 0 0 .31-5Zm-44.46-2.7c.58-8.76 8.57-15.59 17.23-15.59s16.65 6.83 17.23 15.59H498.6Z" style="fill:#202d3d"/><path d="M63.52 0a63.51 63.51 0 0 0-43.93 109.37l1.63 1.45c2.07-2 30.26-29.73 32-31.42l3.39-3.4c.29-.28.58-.56.86-.85a4.41 4.41 0 0 0 1.4-3.4 4.46 4.46 0 0 0-1.47-3.23l-.56-.43a4.9 4.9 0 0 0-6.08.65L22.18 96.92a53.15 53.15 0 1 1 27.12 17.83 8.47 8.47 0 0 0-2.37-.39 5 5 0 0 0-4.93 5.17c0 2.57 1.91 4.44 4.36 5.13A63.51 63.51 0 1 0 63.52 0Z" style="fill:#00bcf5"/><path d="M107 51.76a5.11 5.11 0 0 0-4.84-4.1 4.93 4.93 0 0 0-4.92 4.88 5.82 5.82 0 0 0 .32 1.76 35.24 35.24 0 0 1-34 44.48h-.29a35.27 35.27 0 0 1 .24-70.54h.26a35.44 35.44 0 0 1 21 7.09l-18.36 18.2a4.74 4.74 0 0 0-.84 5.53l.63.94a4.42 4.42 0 0 0 3.2 1.43 4.64 4.64 0 0 0 3.24-1.33l20.64-20.55c.34-.33.91-.9 1.49-1.48l.23-.21c.9-.92 3.12-3.3 3.12-3.3l-1.85-2a44.64 44.64 0 0 0-32.44-14.08h-.38a45 45 0 0 0-32 76.66 44.74 44.74 0 0 0 31.76 13.41h.32A45 45 0 0 0 107 51.76Z" style="fill:#2ad5c5"/></svg>