<?xml version="1.0" encoding="utf-8"?>
<!-- Generator: Adobe Illustrator 23.0.1, SVG Export Plug-In . SVG Version: 6.00 Build 0)  -->
<svg version="1.1" id="Vrstva_1" xmlns="http://www.w3.org/2000/svg" xmlns:xlink="http://www.w3.org/1999/xlink" x="0px" y="0px"
	 viewBox="0 0 1328.3 494.6" style="enable-background:new 0 0 1328.3 494.6;" xml:space="preserve">
<style type="text/css">
	.st0{fill:url(#SVGID_1_);}
	.st1{fill:#071125;}
</style>
<linearGradient id="SVGID_1_" gradientUnits="userSpaceOnUse" x1="664.1" y1="350.628" x2="664.1" y2="691.6661" gradientTransform="matrix(1 0 0 -1 0 692.8756)">
	<stop  offset="0" style="stop-color:#071125"/>
	<stop  offset="0.9246" style="stop-color:#071125;stop-opacity:8.000000e-02"/>
	<stop  offset="1" style="stop-color:#071125;stop-opacity:0"/>
</linearGradient>
<path class="st0" d="M1328.2,201.2V1.2H0v200c0,0-5.4,106.8,120.6,137.8c143.6,2.2,952.3,6.1,1087,0
	C1333.6,307.9,1328.2,201.2,1328.2,201.2z"/>
<path class="st1" d="M120.6,339c126,31,270.4,49.2,349.2,68.3c78.8,19,159.5,47.9,194.3,87.3l0,0l0,0l0,0l0,0
	c34.8-39.4,115.5-68.3,194.3-87.3s223.2-37.2,349.2-68.3L120.6,339z"/>
</svg>
