<svg xmlns="http://www.w3.org/2000/svg" xmlns:xlink="http://www.w3.org/1999/xlink" width="24" height="21" viewBox="0 0 24 21"><defs><path id="a" d="M474 1972.37c0 1.69-.9 3.45-2.67 5.23l-7.51 7.27a.42.42 0 0 1-.32.13.43.43 0 0 1-.32-.13l-7.52-7.3-.03-.01a12.3 12.3 0 0 1-1.75-2.2 7.08 7.08 0 0 1-.61-1.42 5.05 5.05 0 0 1-.27-1.57 5.3 5.3 0 0 1 1.44-3.95 5.52 5.52 0 0 1 4.02-1.42c.47 0 .95.08 1.43.24.5.17.96.4 1.38.67.43.3.81.56 1.13.82.3.25.6.52.89.8l.21.2.21-.2a10.9 10.9 0 0 1 2.02-1.62c.42-.28.89-.5 1.38-.67a4.5 4.5 0 0 1 1.43-.24c1.7 0 3.06.48 4.02 1.42a5.3 5.3 0 0 1 1.44 3.95zm-19.05-3.13c-.3.32-.54.76-.73 1.3a5.63 5.63 0 0 0-.27 1.83c0 1.43.78 2.95 2.34 4.5l7.21 7 7.2-6.98c1.56-1.57 2.35-3.1 2.35-4.52 0-.69-.09-1.3-.27-1.83a3.7 3.7 0 0 0-.73-1.3 3.5 3.5 0 0 0-1.07-.79c-.4-.2-.82-.33-1.21-.4a7.2 7.2 0 0 0-1.23-.1c-.46 0-.95.11-1.47.33-.5.22-.97.49-1.4.81a14.56 14.56 0 0 0-1.8 1.67h-.01c-.09.11-.2.16-.36.16a.43.43 0 0 1-.36-.16 14.52 14.52 0 0 0-1.81-1.66c-.43-.33-.9-.6-1.4-.82a3.76 3.76 0 0 0-1.47-.33c-.43 0-.85.03-1.23.1-.4.07-.8.2-1.21.4-.42.2-.78.47-1.07.79z"/></defs><g transform="translate(-451 -1965)"><use fill="#fff" xlink:href="#a"/></g></svg>