<svg xmlns="http://www.w3.org/2000/svg" viewBox="0 0 16 18" width="16" height="18">
	<defs>
		<clipPath clipPathUnits="userSpaceOnUse" id="cp1">
			<path d="M-830 -606L770 -606L770 601L-830 601Z" />
		</clipPath>
	</defs>
	<style>
		tspan { white-space:pre }
		.shp0 { fill: #01D9CF;stroke: #01D9CF;stroke-width: 0.5 }
	</style>
	<g id="worldee_web_nastaveni_REFERRAL – 1" clip-path="url(#cp1)">
		<g id="Group 228">
			<path id="Path 563" fill-rule="evenodd" class="shp0" d="M8.89 16.95L3.33 16.95C2.04 16.95 1 15.9 1 14.62L1 6.73C1 5.45 2.04 4.4 3.33 4.4L8.89 4.4C10.17 4.4 11.22 5.45 11.22 6.73L11.22 14.62C11.22 15.9 10.17 16.95 8.89 16.95ZM3.33 5.56C2.69 5.56 2.16 6.09 2.16 6.73L2.16 14.62C2.16 15.26 2.69 15.78 3.33 15.78L8.89 15.78C9.53 15.78 10.05 15.26 10.05 14.62L10.05 6.73C10.05 6.09 9.53 5.56 8.89 5.56L3.33 5.56ZM13.97 12.75C13.64 12.75 13.38 12.48 13.38 12.16L13.38 3.37C13.38 2.73 12.86 2.21 12.22 2.21L5.76 2.21C5.43 2.21 5.17 1.95 5.17 1.62C5.17 1.3 5.43 1.04 5.76 1.04L12.22 1.04C13.5 1.04 14.55 2.09 14.55 3.37L14.55 12.16C14.55 12.48 14.29 12.75 13.97 12.75Z" />
		</g>
	</g>
</svg>