<svg xmlns="http://www.w3.org/2000/svg" xmlns:xlink="http://www.w3.org/1999/xlink" width="22" height="20" viewBox="0 0 22 20"><defs><path id="pryga" d="M579.64 388.2l-1.76-1.82a1.17 1.17 0 0 0-.87-.38c-.35 0-.64.13-.88.38l-8.47 8.85-3.79-3.98a1.17 1.17 0 0 0-.88-.37c-.34 0-.63.12-.87.37l-1.76 1.83c-.24.26-.36.56-.36.92s.12.66.36.92l4.67 4.87 1.76 1.83c.24.25.53.38.87.38.35 0 .64-.13.88-.38l1.76-1.83 9.34-9.75c.24-.25.36-.56.36-.92 0-.35-.12-.66-.36-.91z"/></defs><g><g transform="translate(-559 -384)"><use fill="#2fd6c6" xlink:href="#pryga"/></g></g></svg>