<svg xmlns="http://www.w3.org/2000/svg" xmlns:xlink="http://www.w3.org/1999/xlink" width="25" height="22" viewBox="0 0 25 22"><defs><path id="a" d="M515.99 186.68a3.5 3.5 0 0 1-1.23-2.75c0-1.99 1.66-3.61 3.7-3.61 1.03 0 1.96.4 2.63 1.07a4.89 4.89 0 0 1 4.69-3.4c2.7 0 4.9 2.15 4.9 4.78 0 1.58-.8 2.98-2.01 3.85 1.15.05 2.09.87 2.3 1.95l4.35-2.14a.45.45 0 0 1 .22-.06c.86 0 1.46.68 1.46 1.55v7.34a1.5 1.5 0 0 1-1.5 1.55.45.45 0 0 1-.22-.06l-4.4-2.13v.08c0 1.32-.96 2.3-2.32 2.3h-11.94c-1.36 0-2.62-.97-2.62-2.3v-5.68c0-1.14.9-2.1 1.99-2.34zm14.9 3.14v3.53l4.69 2.3c.17-.04.25-.22.25-.39v-7.34c0-.17-.08-.35-.25-.4zm-9.94-3.32h1.93a4.5 4.5 0 0 1-1.1-1.08c-.2.41-.49.8-.83 1.08zm1.11-3.43c.05.18.08.38.1.57a3.72 3.72 0 0 0 3.62 2.77 3.7 3.7 0 0 0 3.73-3.64c0-2-1.67-3.64-3.73-3.64a3.7 3.7 0 0 0-3.72 3.94zm-6.14.86a2.51 2.51 0 0 0 2.55 2.48c1.4 0 2.54-1.11 2.54-2.48v-.11a4.62 4.62 0 0 1-.1-.58 2.54 2.54 0 0 0-2.44-1.79 2.51 2.51 0 0 0-2.55 2.48zm13.8 4.98c0-.7-.58-1.27-1.3-1.27h-11.94c-.73 0-1.31.57-1.31 1.27v5.68c0 .7.58 1.27 1.3 1.27h11.94c.73 0 1.31-.57 1.31-1.27z"/></defs><g transform="translate(-513 -176)"><use fill="#ffffff" xlink:href="#a"/></g></svg>