<svg data-name="Vrstva 1" viewBox="0 0 543 127" xmlns="http://www.w3.org/2000/svg"><path d="M269 99.7c-15.7 0-28.8-12.6-28.8-28.4s13.4-27.7 28.8-27.7c15.6 0 28.8 12.1 28.8 27.9-.01 15.2-12.6 28.2-28.8 28.2zm0-47a18.9 18.9 0 1 0 18.8 18.8A18.8 18.8 0 0 0 269 52.8zM230 45.1h-.48c-2.39 0-4.1 1.7-4.81 4l-10.4 30.6h-.19l-11.1-34.6h-6.54l-11.1 34.6h-.19l-.23-.72-.63-1.85-1-2.78-1.13-3.37-1.32-3.87-1.38-4-1.35-4-1.23-3.61-1-3-.74-2.17a12.7 12.7 0 0 0-1.14-3 4.91 4.91 0 0 0-4.13-2.23h-7.23l19.9 53.3h5.49l11.6-35.9h.19l11.6 35.9h5.58l19.7-53.4H230zM346 27.2h-.34a4.9 4.9 0 0 0-4.9 4.44v66.8h10v-71.2h-4.77zM331 43.6c-5.39.19-10.3 1.64-13.6 6.26h-.19v-4.82h-9.33v53.3h10v-29.2c0-4.81 1.15-11 5.87-13.4a16.8 16.8 0 0 1 3.83-1.44 4.85 4.85 0 0 0 3.39-4.62v-6.17zM412 27.2h-.14a4.87 4.87 0 0 0-4.86 4.83V51.61h-.19c-4.23-5.39-11.4-8-18.1-8-16.2 0-27.7 12.3-27.7 28.3s11.7 27.8 27.7 27.8c7.41 0 14.4-2.79 18.9-9h.19v2.39a6.76 6.76 0 0 0 .06 1.25 4.82 4.82 0 0 0 .29 1 4.87 4.87 0 0 0 2.74 2.67 5.24 5.24 0 0 0 1.68.33h4.47v-71.2h-5zm-22.8 63.4c-10.2 0-18.2-8.76-18.2-18.8 0-10.4 7.7-19 18.3-19 10.9 0 18.5 8.37 18.5 19a18.6 18.6 0 0 1-18.6 18.8zM481 71.1a27.3 27.3 0 0 0-27.1-27.4c-15.6 0-27.3 12.6-27.3 28 0 14.9 11.9 28.1 27.1 28.1a27.2 27.2 0 0 0 25.6-18.1H472a5 5 0 0 0-4 2.09 17.4 17.4 0 0 1-13.9 6.86c-8.76 0-15.5-6.26-17.5-14.5h44.2a43.6 43.6 0 0 0 .28-5zm-44.5-2.69c.58-8.76 8.57-15.6 17.2-15.6s16.6 6.83 17.2 15.6h-34.5zM543 71.1a27.3 27.3 0 0 0-27.1-27.4c-15.6 0-27.3 12.6-27.3 28 0 14.9 11.9 28.1 27.1 28.1a27.2 27.2 0 0 0 25.6-18.1h-7.33a5 5 0 0 0-4 2.09 17.4 17.4 0 0 1-13.9 6.86c-8.76 0-15.5-6.26-17.5-14.5h44.2a43.6 43.6 0 0 0 .31-5zm-44.5-2.7c.58-8.76 8.57-15.6 17.2-15.6s16.6 6.83 17.2 15.6h-34.5zM63.52 0a63.51 63.51 0 0 0-43.93 109.37l1.63 1.45c2.07-2 30.26-29.73 32-31.42l3.39-3.4c.29-.28.58-.56.86-.85a4.41 4.41 0 0 0 1.4-3.4 4.46 4.46 0 0 0-1.47-3.23l-.56-.43a4.9 4.9 0 0 0-6.08.65L22.18 96.92a53.15 53.15 0 1 1 27.12 17.83 8.47 8.47 0 0 0-2.37-.39 5 5 0 0 0-4.93 5.17c0 2.57 1.91 4.44 4.36 5.13A63.51 63.51 0 1 0 63.52 0Z" style="fill:#fff"/><path d="M107 51.76a5.11 5.11 0 0 0-4.84-4.1 4.93 4.93 0 0 0-4.92 4.88 5.82 5.82 0 0 0 .32 1.76 35.24 35.24 0 0 1-34 44.48h-.29a35.27 35.27 0 0 1 .24-70.54h.26a35.44 35.44 0 0 1 21 7.09l-18.36 18.2a4.74 4.74 0 0 0-.84 5.53l.63.94a4.42 4.42 0 0 0 3.2 1.43 4.64 4.64 0 0 0 3.24-1.33l20.64-20.55c.34-.33.91-.9 1.49-1.48l.23-.21c.9-.92 3.12-3.3 3.12-3.3l-1.85-2a44.64 44.64 0 0 0-32.44-14.08h-.38a45 45 0 0 0-32 76.66 44.74 44.74 0 0 0 31.76 13.41h.32A45 45 0 0 0 107 51.76Z" style="fill:#fff"/></svg>