<?xml version="1.0" encoding="utf-8"?>
<!-- Generator: Adobe Illustrator 19.2.1, SVG Export Plug-In . SVG Version: 6.00 Build 0)  -->
<svg version="1.1" id="Vrstva_1" xmlns="http://www.w3.org/2000/svg" xmlns:xlink="http://www.w3.org/1999/xlink" x="0px" y="0px"
	 viewBox="0 0 1328.2 297.8" style="enable-background:new 0 0 1328.2 297.8;" xml:space="preserve">
<path d="M1328.2,4.4V0H0v4.4c0,0-5.4,106.8,120.6,137.8s270.4,49.2,349.2,68.3c78.8,19,159.5,47.9,194.3,87.3c0,0,0,0,0,0
	c0,0,0,0,0,0c0,0,0,0,0,0c0,0,0,0,0,0c34.8-39.4,115.5-68.3,194.3-87.3c78.8-19,223.2-37.2,349.2-68.3S1328.2,4.4,1328.2,4.4z"/>
</svg>
