<svg xmlns="http://www.w3.org/2000/svg" viewBox="0 0 653 655" width="653" height="655">
	<defs>
		<clipPath clipPathUnits="userSpaceOnUse" id="cp1">
			<path d="M-465 -171L1135 -171L1135 947L-465 947Z" />
		</clipPath>
	</defs>
	<style>
		tspan { white-space:pre }
		.shp0 { opacity: 0.051;fill: #ffffff } 
		.shp1 { fill: none } 
		.shp2 { opacity: 0.698;fill: #ffffff } 
		.shp3 { fill: #ffca3b } 
		.shp4 { fill: #02ada2 } 
		.shp5 { fill: #ffffff } 
		.shp6 { fill: none;stroke: #02ada2;stroke-width: 7 } 
		.shp7 { fill: none;stroke: #ffca3b;stroke-width: 7 } 
		.shp8 { opacity: 0.698;fill: none;stroke: #ffffff;stroke-width: 7 } 
		.shp9 { fill: none;stroke: #ffffff;stroke-width: 7 } 
	</style>
	<g id="registrace" clip-path="url(#cp1)">
		<g id="Group 247">
			<g id="Group 244">
				<path id="Ellipse 56" class="shp0" d="M326.61 651.75C146.53 651.75 0.97 506.18 0.97 326.1C0.97 146.02 146.53 0.46 326.61 0.46C506.69 0.46 652.25 146.02 652.25 326.1C652.25 506.18 506.69 651.75 326.61 651.75Z" />
			</g>
			<g id="Group 245">
				<path id="Ellipse 57" class="shp0" d="M504.49 503.99C406.12 602.36 247.1 602.36 148.73 503.99C50.36 405.62 50.36 246.59 148.73 148.22C247.1 49.85 406.12 49.85 504.49 148.22C602.86 246.59 602.86 405.62 504.49 503.99Z" />
			</g>
			<g id="Group 246">
				<path id="Rectangle 308" class="shp1" d="M12.05 9.33L644.34 9.33L644.34 641.61L12.05 641.61L12.05 9.33Z" />
				<path id="Path 576" class="shp2" d="M548.48 448.21L550.78 458.06L560.2 461.75L551.53 466.98L550.93 477.08L543.28 470.46L533.49 473.01L537.42 463.69L531.97 455.17L542.05 456.03L548.48 448.21Z" />
				<path id="Path 577" class="shp3" d="M147.69 71.49L154.94 78.55L164.86 76.58L160.38 85.65L165.32 94.48L155.31 93.03L148.44 100.46L146.72 90.49L137.54 86.24L146.49 81.53L147.69 71.49Z" />
				<path id="Path 578" class="shp3" d="M138.88 549.56L141.49 559.34L151.02 562.73L142.53 568.23L142.25 578.35L134.39 571.97L124.69 574.83L128.32 565.39L122.61 557.04L132.71 557.58L138.88 549.56Z" />
				<path id="Path 579" class="shp3" d="M409.41 54.73L411.21 61.49L417.81 63.84L411.93 67.65L411.74 74.65L406.3 70.24L399.58 72.21L402.1 65.68L398.14 59.9L405.13 60.28L409.41 54.73Z" />
				<path id="Path 580" class="shp4" d="M545.72 194.1L551.47 198.09L558.02 195.62L556 202.32L560.38 207.79L553.38 207.94L549.53 213.79L547.22 207.18L540.47 205.33L546.04 201.09L545.72 194.1Z" />
				<path id="Path 581" class="shp5" d="M58.77 560.88L64.52 564.87L71.07 562.4L69.05 569.1L73.43 574.57L66.43 574.72L62.59 580.57L60.28 573.96L53.53 572.11L59.1 567.87L58.77 560.88Z" />
				<path id="Path 582" class="shp2" d="M616.7 209.64L616.4 216.63L621.99 220.85L615.24 222.72L612.96 229.34L609.09 223.5L602.09 223.38L606.45 217.9L604.41 211.2L610.97 213.65L616.7 209.64Z" />
				<path id="Path 583" class="shp5" d="M267.66 24.66L267.35 31.65L272.94 35.87L266.2 37.74L263.91 44.36L260.05 38.53L253.05 38.4L257.4 32.92L255.36 26.22L261.92 28.67L267.66 24.66Z" />
				<path id="Path 584" class="shp3" d="M567.18 544.81L568.99 551.57L575.58 553.92L569.71 557.73L569.51 564.73L564.08 560.32L557.36 562.3L559.87 555.76L555.92 549.98L562.91 550.36L567.18 544.81Z" />
				<path id="Path 585" class="shp4" d="M22.42 448.83L27.49 453.66L34.34 452.21L31.32 458.53L34.81 464.6L27.87 463.68L23.18 468.87L21.91 461.99L15.52 459.13L21.67 455.8L22.42 448.83Z" />
				<path id="Path 586" class="shp4" d="M616.24 293.8C617.61 290.62 621.3 289.16 624.47 290.54C627.65 291.91 629.11 295.6 627.74 298.77C626.37 301.95 622.68 303.41 619.51 302.04C616.33 300.66 614.87 296.98 616.24 293.8Z" />
				<path id="Path 587" class="shp4" d="M57.73 298.44C59.1 295.27 62.79 293.81 65.96 295.18C69.14 296.55 70.6 300.24 69.23 303.41C67.86 306.59 64.17 308.05 61 306.68C57.82 305.3 56.36 301.62 57.73 298.44Z" />
				<path id="Path 588" class="shp3" d="M180.02 557.32C180.7 555.73 182.55 555 184.13 555.69C185.72 556.37 186.45 558.22 185.77 559.81C185.08 561.39 183.24 562.12 181.65 561.44C180.06 560.75 179.33 558.91 180.02 557.32Z" />
				<path id="Path 589" class="shp3" d="M414.19 599.55C414.87 597.96 416.72 597.23 418.3 597.92C419.89 598.6 420.62 600.45 419.94 602.03C419.25 603.62 417.41 604.35 415.82 603.67C414.23 602.98 413.5 601.14 414.19 599.55Z" />
				<path id="Path 590" class="shp4" d="M99.95 175.43C100.64 173.84 102.48 173.11 104.07 173.8C105.66 174.48 106.39 176.33 105.71 177.92C105.02 179.5 103.18 180.23 101.59 179.55C100 178.86 99.27 177.02 99.95 175.43Z" />
				<path id="Path 591" class="shp4" d="M529.39 241.47C530.07 239.89 531.92 239.15 533.51 239.84C535.09 240.53 535.82 242.37 535.14 243.96C534.45 245.55 532.61 246.28 531.02 245.59C529.43 244.9 528.7 243.06 529.39 241.47Z" />
				<path id="Path 592" class="shp5" d="M239.27 116.09C239.96 114.5 241.8 113.77 243.39 114.45C244.98 115.14 245.71 116.98 245.02 118.57C244.34 120.16 242.49 120.89 240.91 120.2C239.32 119.52 238.59 117.67 239.27 116.09Z" />
				<path id="Path 593" class="shp5" d="M511.13 126.53C511.81 124.95 513.66 124.22 515.25 124.9C516.83 125.59 517.57 127.43 516.88 129.02C516.19 130.61 514.35 131.34 512.76 130.65C511.17 129.96 510.44 128.12 511.13 126.53Z" />
				<path id="Path 594" class="shp5" d="M520.17 504.12C520.86 502.53 522.7 501.8 524.29 502.48C525.88 503.17 526.61 505.01 525.92 506.6C525.24 508.19 523.39 508.92 521.8 508.23C520.22 507.55 519.49 505.7 520.17 504.12Z" />
				<path id="Path 595" class="shp5" d="M243.47 586.8C244.16 585.21 246 584.48 247.59 585.17C249.17 585.85 249.91 587.7 249.22 589.29C248.53 590.87 246.69 591.6 245.1 590.92C243.51 590.23 242.78 588.39 243.47 586.8Z" />
				<path id="Path 596" class="shp5" d="M488.16 549.46C488.85 547.87 490.69 547.14 492.28 547.83C493.87 548.51 494.6 550.36 493.91 551.95C493.23 553.53 491.38 554.26 489.79 553.58C488.21 552.89 487.48 551.05 488.16 549.46Z" />
				<path id="Path 597" class="shp4" d="M129.64 427.7C130.33 426.11 132.17 425.38 133.76 426.07C135.34 426.75 136.07 428.6 135.39 430.18C134.7 431.77 132.86 432.5 131.27 431.82C129.68 431.13 128.95 429.29 129.64 427.7Z" />
				<path id="Path 598" class="shp4" d="M612.32 458.15C613.01 456.56 614.85 455.83 616.44 456.52C618.03 457.2 618.76 459.05 618.07 460.64C617.39 462.22 615.54 462.95 613.96 462.27C612.37 461.58 611.64 459.74 612.32 458.15Z" />
				<path id="Path 599" class="shp3" d="M535.46 70.24C536.14 68.66 537.99 67.93 539.57 68.61C541.16 69.3 541.89 71.14 541.21 72.73C540.52 74.32 538.68 75.05 537.09 74.36C535.5 73.68 534.77 71.83 535.46 70.24Z" />
				<path id="Path 600" class="shp3" d="M396.1 116.09C396.79 114.5 398.63 113.77 400.22 114.45C401.81 115.14 402.54 116.98 401.85 118.57C401.17 120.16 399.32 120.89 397.74 120.2C396.15 119.52 395.42 117.67 396.1 116.09Z" />
				<path id="Path 601" class="shp3" d="M192.75 126.33C194.13 123.15 197.81 121.69 200.99 123.06C204.16 124.43 205.62 128.12 204.25 131.3C202.88 134.47 199.19 135.93 196.02 134.56C192.84 133.19 191.38 129.5 192.75 126.33Z" />
				<path id="Path 602" class="shp5" d="M382.92 547.08C384.3 543.9 387.98 542.44 391.16 543.81C394.33 545.18 395.79 548.87 394.42 552.05C393.05 555.22 389.36 556.68 386.19 555.31C383.01 553.94 381.55 550.25 382.92 547.08Z" />
				<path id="Path 603" class="shp2" d="M57.73 251.59C59.1 248.41 62.79 246.95 65.96 248.32C69.14 249.69 70.6 253.38 69.23 256.56C67.86 259.73 64.17 261.19 61 259.82C57.82 258.45 56.36 254.76 57.73 251.59Z" />
				<path id="Path 604" class="shp2" d="M462.22 144.66C463.59 141.48 467.28 140.02 470.46 141.4C473.63 142.77 475.09 146.46 473.72 149.63C472.35 152.81 468.66 154.27 465.49 152.9C462.31 151.52 460.85 147.84 462.22 144.66Z" />
				<path id="Path 605" class="shp4" d="M87.46 466.52C88.83 463.35 92.52 461.89 95.69 463.26C98.87 464.63 100.33 468.32 98.96 471.49C97.58 474.67 93.9 476.13 90.72 474.76C87.55 473.39 86.08 469.7 87.46 466.52Z" />
				<path id="Line 21" class="shp6" d="M160.47 176.67L77.82 86.47L160.47 176.67Z" />
				<path id="Line 22" class="shp7" d="M438.32 538.19L512.53 635.45L438.32 538.19Z" />
				<path id="Line 23" class="shp7" d="M225.43 76.75L207.59 35.65L225.43 76.75Z" />
				<path id="Line 24" class="shp8" d="M592.41 92.62L493.51 178.89L592.41 92.62Z" />
				<path id="Line 25" class="shp9" d="M151.7 647.34L226.03 539.18L151.7 647.34Z" />
				<path id="Line 26" class="shp9" d="M315.41 623.66L320.64 564.73L315.41 623.66Z" />
				<path id="Line 27" class="shp8" d="M113.34 229.34L38.03 191.43L113.34 229.34Z" />
				<path id="Line 28" class="shp7" d="M436.83 131.49L468.84 76.05L436.83 131.49Z" />
				<path id="Line 29" class="shp6" d="M151.61 482.82L98.17 518.06L151.61 482.82Z" />
			</g>
		</g>
	</g>
</svg>