<svg xmlns="http://www.w3.org/2000/svg" xmlns:xlink="http://www.w3.org/1999/xlink" width="25" height="25" viewBox="0 0 25 25"><defs><path id="a" d="M1204 2804a11.01 11.01 0 0 1-22 0 11.01 11.01 0 0 1 22 0zm-11-9.44a9.45 9.45 0 0 0 0 18.88 9.45 9.45 0 0 0 0-18.88zm-4.1 6.99a1.55 1.55 0 1 1 3.1 0 1.55 1.55 0 0 1-3.1 0zm5.36 0a1.55 1.55 0 1 1 3.1 0 1.55 1.55 0 0 1-3.1 0zm3.32 4.3l.94 1.26-.1.07a8.84 8.84 0 0 1-5.3 2 7.24 7.24 0 0 1-5.06-2.1l-.08-.09 1.15-1.05.08.09c.14.14 3.4 3.56 8.27-.1z"/></defs><g transform="translate(-1180 -2791)"><use fill="#6d6e71" xlink:href="#a"/></g></svg>