<svg xmlns="http://www.w3.org/2000/svg" xmlns:xlink="http://www.w3.org/1999/xlink" width="20" height="20" viewBox="0 0 20 20"><defs><path id="a" d="M836 387a10 10 0 1 1-20.01 0 10 10 0 0 1 20 0zm-7.75 4.8a2.92 2.92 0 0 1-.96.22c-.33 0-.57-.05-.7-.16-.14-.11-.2-.32-.2-.62a6.44 6.44 0 0 1 .2-1.15l.64-2.27a7.13 7.13 0 0 0 .16-1.2c0-.49-.16-.87-.5-1.17-.34-.3-.81-.45-1.43-.45-.35 0-.7.06-1.1.18-.38.12-.78.27-1.2.44l-.17.7c.12-.04.27-.1.44-.14.18-.06.35-.08.52-.08.33 0 .56.05.68.17.12.11.18.32.18.6 0 .17-.02.35-.06.54-.03.2-.08.4-.14.62l-.64 2.28a6.8 6.8 0 0 0-.17 1.2c0 .47.17.85.52 1.15.35.3.83.46 1.45.46.41 0 .77-.05 1.07-.16.31-.1.72-.26 1.23-.46zm.16-9.52c0-.4-.15-.74-.45-1.02-.3-.28-.66-.42-1.08-.42-.42 0-.78.14-1.08.42-.3.28-.45.62-.45 1.02s.15.73.45 1c.3.29.66.42 1.08.42.42 0 .78-.14 1.08-.41.3-.28.45-.62.45-1.01z"/></defs><g transform="translate(-816 -377)"><use fill="#071125" xlink:href="#a"/></g></svg>