<svg xmlns="http://www.w3.org/2000/svg" xmlns:xlink="http://www.w3.org/1999/xlink" width="27" height="22" viewBox="0 0 27 22"><defs><path id="a" d="M266.52 2292.86c-1.06-1.02-2.54-1.55-4.43-1.55-.5 0-1.04.1-1.57.27a6.5 6.5 0 0 0-1.51.73 11.95 11.95 0 0 0-2.22 1.77l-.24.23-.23-.23a12 12 0 0 0-2.22-1.77 6.5 6.5 0 0 0-1.52-.73 4.99 4.99 0 0 0-1.57-.27c-1.88 0-3.37.53-4.43 1.55-1.05 1.03-1.58 2.48-1.58 4.32 0 .56.1 1.14.3 1.73a7.74 7.74 0 0 0 1.55 2.79 13.56 13.56 0 0 0 1.05 1.16l.02.02 8.28 7.97c.1.1.2.15.35.15.14 0 .26-.05.35-.14l8.27-7.95c1.95-1.95 2.93-3.87 2.93-5.73 0-1.84-.53-3.3-1.58-4.32z"/><clipPath id="b"><use fill="#fff" xlink:href="#a"/></clipPath></defs><g transform="translate(-243 -2290)"><use fill="#fff" fill-opacity="0" stroke="#1c1c1c" stroke-miterlimit="50" stroke-width="2" clip-path="url(&quot;#b&quot;)" xlink:href="#a"/></g></svg>