<svg xmlns="http://www.w3.org/2000/svg" viewBox="0 0 13 12" width="13" height="12">
	<defs>
		<clipPath clipPathUnits="userSpaceOnUse" id="cp1">
			<path d="M-328 -1470L1272 -1470L1272 1449L-328 1449Z" />
		</clipPath>
	</defs>
	<style>
		tspan { white-space:pre }
		.shp0 { fill: #ffffff;stroke: #ffffff } 
	</style>
	<g id="worldee_HP" clip-path="url(#cp1)">
		<g id="Repeat Grid 5">
			<g id="Group 258">
				<g id="Group 256">
					<path id="heart kopie 5" fill-rule="evenodd" class="shp0" d="M11.78 4.44C11.78 5.29 11.33 6.18 10.43 7.07L6.65 10.73C6.6 10.78 6.55 10.8 6.49 10.8C6.42 10.8 6.37 10.78 6.32 10.73L2.53 7.06L2.52 7.05C2.49 7.02 2.43 6.97 2.37 6.9C2.3 6.83 2.19 6.7 2.04 6.52C1.89 6.33 1.76 6.13 1.64 5.94C1.52 5.75 1.42 5.51 1.33 5.23C1.24 4.96 1.19 4.69 1.19 4.44C1.19 3.59 1.44 2.92 1.92 2.45C2.4 1.97 3.08 1.73 3.95 1.73C4.18 1.73 4.42 1.78 4.67 1.86C4.91 1.94 5.15 2.05 5.36 2.19C5.58 2.34 5.77 2.48 5.93 2.6C6.09 2.73 6.24 2.87 6.38 3.01L6.49 3.11L6.59 3.01C6.73 2.87 6.89 2.73 7.04 2.6C7.2 2.48 7.39 2.34 7.61 2.19C7.82 2.05 8.06 1.94 8.31 1.86C8.55 1.78 8.79 1.73 9.03 1.73C9.89 1.73 10.57 1.97 11.05 2.45C11.54 2.92 11.78 3.59 11.78 4.44ZM2.17 2.86C2.02 3.03 1.9 3.24 1.81 3.52C1.72 3.78 1.67 4.09 1.67 4.44C1.67 5.16 2.07 5.92 2.85 6.71L6.49 10.23L10.12 6.71C10.9 5.92 11.3 5.16 11.3 4.44C11.3 4.09 11.26 3.78 11.17 3.52C11.07 3.24 10.95 3.03 10.8 2.86C10.65 2.7 10.47 2.57 10.26 2.47C10.05 2.37 9.85 2.3 9.65 2.26C9.45 2.23 9.24 2.21 9.03 2.21C8.8 2.21 8.55 2.27 8.29 2.38C8.03 2.49 7.8 2.63 7.58 2.79C7.37 2.95 7.19 3.1 7.05 3.24C6.9 3.38 6.77 3.51 6.67 3.63L6.67 3.63C6.62 3.68 6.57 3.71 6.49 3.71C6.41 3.71 6.35 3.68 6.3 3.63L6.3 3.62C6.2 3.51 6.08 3.38 5.93 3.24C5.78 3.1 5.6 2.95 5.39 2.79C5.18 2.63 4.94 2.49 4.69 2.38C4.43 2.27 4.18 2.21 3.95 2.21C3.73 2.21 3.52 2.23 3.32 2.26C3.13 2.3 2.92 2.37 2.71 2.47C2.5 2.57 2.32 2.7 2.17 2.86Z" />
				</g>
			</g>
		</g>
	</g>
</svg>