<svg xmlns="http://www.w3.org/2000/svg" xmlns:xlink="http://www.w3.org/1999/xlink" width="13" height="17" viewBox="0 0 13 17"><defs><path id="a" d="M706.43 1979.6a4.03 4.03 0 0 1-3.93 4.13 4.03 4.03 0 0 1-3.93-4.13 4.03 4.03 0 0 1 3.93-4.12 4.03 4.03 0 0 1 3.93 4.12zm-3.93-3.14c-1.65 0-3 1.41-3 3.14a3.08 3.08 0 0 0 3 3.15c1.65 0 3-1.41 3-3.15a3.07 3.07 0 0 0-3-3.14zm6.5 3.37c0 3.66-5.91 9.77-6.16 10.03a.49.49 0 0 1-.34.14.49.49 0 0 1-.34-.14c-.25-.26-6.16-6.37-6.16-10.03 0-3.77 2.92-6.83 6.5-6.83s6.5 3.06 6.5 6.83zm-.97 0c0-3.21-2.48-5.82-5.53-5.82-3.05 0-5.54 2.61-5.54 5.82 0 2.52 3.73 7.01 5.54 8.95 1.81-1.94 5.54-6.43 5.54-8.95z"/></defs><g transform="translate(-696 -1973)"><use fill="#fff" xlink:href="#a"/></g></svg>