<?xml version="1.0" standalone="no"?>
<!DOCTYPE svg PUBLIC "-//W3C//DTD SVG 20010904//EN"
 "http://www.w3.org/TR/2001/REC-SVG-20010904/DTD/svg10.dtd">
<svg version="1.0" xmlns="http://www.w3.org/2000/svg"
 width="180.000000pt" height="180.000000pt" viewBox="0 0 180.000000 180.000000"
 preserveAspectRatio="xMidYMid meet">
<metadata>
Created by potrace 1.11, written by Peter Selinger 2001-2013
</metadata>
<g transform="translate(0.000000,180.000000) scale(0.100000,-0.100000)"
fill="#000000" stroke="none">
<path d="M730 1784 c-36 -8 -72 -17 -80 -18 -9 -2 -45 -16 -80 -30 -493 -200
-704 -774 -461 -1254 42 -83 166 -242 190 -242 4 0 45 37 90 81 88 88 84 86
131 39 20 -20 160 -89 193 -96 10 -2 26 -5 35 -8 107 -31 269 -19 390 28 205
81 377 290 409 500 14 91 6 243 -16 299 -14 37 -53 54 -86 39 -36 -16 -44 -47
-30 -108 25 -109 4 -256 -52 -369 -53 -104 -201 -222 -323 -258 -59 -18 -206
-19 -267 -3 -83 22 -203 86 -203 109 0 6 72 82 159 169 88 87 158 164 157 171
-11 61 -47 82 -93 52 -15 -10 -89 -81 -165 -157 -93 -94 -144 -138 -154 -134
-8 3 -29 36 -46 72 -168 360 80 762 471 762 92 0 160 -15 235 -52 105 -53 111
-35 -72 -219 -171 -172 -184 -194 -143 -231 38 -35 62 -18 270 191 111 110
201 205 201 212 0 21 -110 118 -170 149 -264 139 -561 101 -769 -98 -162 -155
-234 -375 -197 -602 12 -75 56 -181 105 -253 12 -16 21 -33 21 -36 0 -10 -57
-69 -67 -69 -24 0 -114 169 -144 272 -24 85 -33 256 -18 333 6 28 12 60 15 73
8 42 41 120 78 185 132 237 399 388 669 381 162 -4 338 -67 456 -162 69 -56
67 -54 122 -122 162 -200 211 -487 126 -731 -26 -73 -87 -187 -120 -223 -53
-57 -87 -92 -109 -112 -45 -41 -150 -103 -216 -127 -62 -23 -80 -28 -152 -44
-51 -12 -226 -5 -287 11 -72 18 -107 10 -124 -28 -17 -36 7 -78 54 -93 66 -22
89 -25 212 -29 82 -2 142 2 190 12 39 9 77 17 86 19 45 10 177 72 239 114 297
199 451 555 389 904 -7 40 -13 74 -14 77 -16 83 -119 281 -179 347 -159 173
-298 256 -517 309 -55 14 -275 12 -339 -2z"/>
</g>
</svg>
