<svg xmlns="http://www.w3.org/2000/svg" viewBox="0 0 11 8" width="11" height="8">
	<defs>
		<clipPath clipPathUnits="userSpaceOnUse" id="cp1">
			<path d="M-693 -745L907 -745L907 462L-693 462Z" />
		</clipPath>
	</defs>
	<style>
		tspan { white-space:pre }
		.shp0 { fill: #f4fdfc } 
	</style>
	<g id="worldee_web_nastaveni_REFERRAL – 1" clip-path="url(#cp1)">
		<g id="Repeat Grid 5">
			<g id="Layer">
				<path id="Path 462" class="shp0" d="M3.87 7.7C3.78 7.8 3.65 7.85 3.51 7.85C3.37 7.85 3.24 7.8 3.14 7.7L0.23 4.79C-0.08 4.48 -0.08 3.99 0.23 3.69L0.59 3.33C0.89 3.02 1.39 3.02 1.69 3.33L3.51 5.15L8.43 0.23C8.73 -0.08 9.22 -0.08 9.52 0.23L9.89 0.59C10.19 0.89 10.19 1.39 9.89 1.69L3.87 7.7Z" />
			</g>
		</g>
	</g>
</svg>