<svg xmlns="http://www.w3.org/2000/svg" width="20.996" height="18.991" viewBox="0 0 20.996 18.991">
  <path id="trip" d="M17.49,2.95a.3.3,0,0,0-.053,0,.167.167,0,0,0-.039,0H15.82a.184.184,0,0,0-.033,0,.338.338,0,0,0-.047,0H14.433V1.2A1.185,1.185,0,0,0,13.256.006H7.735A1.185,1.185,0,0,0,6.559,1.2V2.95H5.333a.278.278,0,0,0-.051,0,.167.167,0,0,0-.039,0H3.666a.135.135,0,0,0-.041.006.355.355,0,0,0-.067-.006C.367,2.95,0,4.936,0,6.43v9.2C0,17.073.369,19,3.576,19a.276.276,0,0,0,.077-.01h1.6a.282.282,0,0,0,.077.01h10.38a.321.321,0,0,0,.063-.006A.167.167,0,0,0,15.82,19H17.4a.114.114,0,0,0,.037,0,.3.3,0,0,0,.055,0c3.106,0,3.5-1.8,3.5-3.371V6.43C20.994,4.746,20.723,2.95,17.49,2.95Zm-8.732,0V2.079l3.529.006V2.95ZM19.789,6.43v9.2c0,1.436-.334,2.131-2.219,2.15V4.171C19.685,4.191,19.789,5.005,19.789,6.43ZM15.648,4.17V17.776H5.415V4.17Zm-12.154,0v13.6c-1.935-.02-2.292-.744-2.292-2.15V6.43C1.2,4.981,1.57,4.188,3.494,4.171Z" transform="translate(0.002 -0.006)" fill="#fff" fill-rule="evenodd"/>
</svg>
