<svg xmlns="http://www.w3.org/2000/svg" width="12.001" height="12.001" viewBox="0 0 12.001 12.001"><defs><style>.a{fill:#787c94;}</style></defs><path class="a" d="M-1591.51,12.119l-4.034-4.034-4.034,4.034a1.151,1.151,0,0,1-1.628,0,1.152,1.152,0,0,1,0-1.629l4.034-4.034-4.034-4.034a1.152,1.152,0,0,1,0-1.629,1.151,1.151,0,0,1,1.628,0l4.034,4.034,4.034-4.034a1.151,1.151,0,0,1,1.629,0,1.15,1.15,0,0,1,0,1.628l-4.034,4.034,4.034,4.034a1.153,1.153,0,0,1,0,1.629,1.148,1.148,0,0,1-.814.337A1.148,1.148,0,0,1-1591.51,12.119Z" transform="translate(1601.545 -0.455)"/></svg>